<?xml version="1.0" encoding="UTF-8" standalone="no"?>
<!-- Generator: Adobe Illustrator 18.1.1, SVG Export Plug-In . SVG Version: 6.00 Build 0)  -->

<svg
   xmlns:dc="http://purl.org/dc/elements/1.1/"
   xmlns:cc="http://creativecommons.org/ns#"
   xmlns:rdf="http://www.w3.org/1999/02/22-rdf-syntax-ns#"
   xmlns:svg="http://www.w3.org/2000/svg"
   xmlns="http://www.w3.org/2000/svg"
   xmlns:sodipodi="http://sodipodi.sourceforge.net/DTD/sodipodi-0.dtd"
   xmlns:inkscape="http://www.inkscape.org/namespaces/inkscape"
   version="1.1"
   x="0px"
   y="0px"
   viewBox="0 0 1010 660"
   enable-background="new 0 0 1010 660"
   xml:space="preserve"
   id="svg2"
   inkscape:version="0.91 r13725"
   sodipodi:docname="IPPEX_visualdev_title-screen.svg"
   inkscape:export-filename="/Users/adomingu/Google Drive/Github/ippex/tokamak/img/startButOff.png"
   inkscape:export-xdpi="90"
   inkscape:export-ydpi="90"><metadata
     id="metadata155"><rdf:RDF><cc:Work
         rdf:about=""><dc:format>image/svg+xml</dc:format><dc:type
           rdf:resource="http://purl.org/dc/dcmitype/StillImage" /></cc:Work></rdf:RDF></metadata><defs
     id="defs153" /><sodipodi:namedview
     pagecolor="#ffffff"
     bordercolor="#666666"
     borderopacity="1"
     objecttolerance="10"
     gridtolerance="10"
     guidetolerance="10"
     inkscape:pageopacity="0"
     inkscape:pageshadow="2"
     inkscape:window-width="1243"
     inkscape:window-height="756"
     id="namedview151"
     showgrid="false"
     inkscape:zoom="0.48447315"
     inkscape:cx="370.85849"
     inkscape:cy="330"
     inkscape:window-x="0"
     inkscape:window-y="0"
     inkscape:window-maximized="0"
     inkscape:current-layer="layer2" /><g
     id="Layer_3" /><g
     inkscape:groupmode="layer"
     id="layer3"
     inkscape:label="blackback"
     style="display:inline"><rect
       style="fill:#231f20"
       id="rect5"
       height="660"
       width="1010"
       y="0"
       x="0" /></g><g
     inkscape:groupmode="layer"
     id="layer1"
     inkscape:label="intro_cover"
     style="display:inline"><line
       style="fill:none;stroke:#5a326e;stroke-width:1.97219956;stroke-linecap:round;stroke-miterlimit:10"
       id="line8"
       y2="481.88608"
       x2="1008.9999"
       y1="481.88608"
       x1="1.0001442"
       stroke-miterlimit="10" /><line
       style="fill:none;stroke:#5a326e;stroke-width:1.97219956;stroke-linecap:round;stroke-miterlimit:10"
       id="line10"
       y2="491.91391"
       x2="1008.9999"
       y1="491.91391"
       x1="1.0001442"
       stroke-miterlimit="10" /><g
       id="g12"><g
         id="g14"><path
           style="fill:#193634"
           inkscape:connector-curvature="0"
           id="path16"
           d="m 283.2,156.3 c 2.7,1.3 3.9,4.1 2.8,6.9 l -44.6,109.4 c -1.9,4.4 -7.8,4.4 -9.7,0 L 187.1,163.2 c -0.9,-2.8 0.2,-5.6 3,-6.9 2.7,-0.9 5.6,0.3 6.7,3 l 39.9,97.7 39.8,-97.7 c 1.1,-2.7 4.2,-3.9 6.7,-3 z m -69.7,0 c 2.8,-0.9 5.8,0.3 6.9,3 l 16.3,39.6 16.1,-39.6 c 0.9,-2.7 4.1,-3.9 6.7,-3 2.7,1.3 3.9,4.1 3,6.9 l -21.1,51.5 c -1.7,4.2 -7.8,4.2 -9.7,0 l -20.8,-51.5 c -1.3,-2.8 0.1,-5.7 2.6,-6.9 z" /><path
           style="fill:#193634"
           inkscape:connector-curvature="0"
           id="path18"
           d="m 305.4,271 c -3,0 -5.3,-2.3 -5.3,-5.2 l 0,-104.7 c 0,-2.8 2.3,-5.2 5.3,-5.2 2.8,0 5.2,2.3 5.2,5.2 l 0,104.7 c 0,2.9 -2.4,5.2 -5.2,5.2 z m 21,0 c -3,0 -5.3,-2.3 -5.3,-5.2 l 0,-104.7 c 0,-2.8 2.3,-5.2 5.3,-5.2 2.8,0 5.2,2.3 5.2,5.2 l 0,104.7 c 0,2.9 -2.4,5.2 -5.2,5.2 z" /><path
           style="fill:#193634"
           inkscape:connector-curvature="0"
           id="path20"
           d="m 356.8,265.9 0,-104.8 c 0,-2.8 2.5,-5.2 5.3,-5.2 l 41.2,0 c 32.1,0 48.2,39.3 25.7,62.5 -4.5,4.5 -10.2,8 -16.4,9.5 l 24.3,34.8 c 3.9,5.6 -4.7,11.7 -8.5,6.1 l -29,-41.5 c -3.1,-4.1 0,-8.6 3.9,-8.6 23,0 34.3,-28.5 18.2,-44.8 -4.7,-4.7 -11.1,-7.5 -18.2,-7.5 l -36,0 0,99.4 c 0,7 -10.5,7 -10.5,0.1 z m 39.6,-57.6 c -8.1,-0.5 -8.5,-10.3 0,-10.3 4.9,0 10.6,0.8 10.6,-5.3 0,-3.1 -2.5,-5.3 -5.5,-5.3 l -18.6,0 c -6.9,0 -6.9,-10.5 0,-10.5 l 18.6,0 c 9.5,0 15.8,8 15.8,16 0,8.8 -7.2,15.5 -15.8,15.5 -1.4,-0.1 -3.4,0 -5.1,-0.1 z m 6.2,60.5 -14.4,-20.8 0,17.8 c 0,6.9 -10.5,6.9 -10.5,0 l 0,-34.1 c 0,-5.6 6.6,-7.2 9.5,-3.3 l 24,34.3 c 4,5.7 -4.5,11.8 -8.6,6.1 z" /><path
           style="fill:#193634"
           inkscape:connector-curvature="0"
           id="path22"
           d="m 445.1,161.3 c 0,-3 2.3,-5.2 5.3,-5.2 l 73.1,0 c 2.8,0 5,2.2 5,5.2 0,2.8 -2.2,5.2 -5,5.2 l -73.1,0 c -3,0 -5.3,-2.4 -5.3,-5.2 z m 0,21 c 0,-3 2.3,-5.3 5.3,-5.3 l 26,0 c 3,0 5.3,2.3 5.3,5.3 l 0,83.4 c 0,3 -2.3,5.3 -5.3,5.3 -2.8,0 -5.3,-2.3 -5.3,-5.3 l 0,-78.4 -20.7,0 c -3,0 -5.3,-2.2 -5.3,-5 z m 83.4,0 c 0,2.8 -2.2,5 -5,5 l -21,0 0,78.4 c 0,3 -2.3,5.3 -5.3,5.3 -2.8,0 -5.2,-2.3 -5.2,-5.3 l 0,-83.4 c 0,-3 2.3,-5.3 5.2,-5.3 l 26.3,0 c 2.8,0 5,2.3 5,5.3 z" /><path
           style="fill:#193634"
           inkscape:connector-curvature="0"
           id="path24"
           d="m 544.8,229.2 0,-68.2 c 0,-3 2.3,-5.3 5.2,-5.3 3,0 5.3,2.3 5.3,5.3 l 0,68.2 c 0,43.8 67.2,43.8 67.2,0 l 0,-68.2 c 0,-3 2.2,-5.3 5.2,-5.3 2.8,0 5.2,2.3 5.2,5.3 l 0,68.2 c -0.2,57.5 -88.1,57.3 -88.1,0 z M 566.2,161 c 0,-3 2.3,-5.3 5.2,-5.3 3,0 5.3,2.3 5.3,5.3 l 0,67 c 0,16.6 24.3,16.6 24.3,0 l 0,-67 c 0,-3 2.2,-5.3 5.3,-5.3 2.8,0 5.2,2.3 5.2,5.3 l 0,67 c 0,30.5 -45.2,30.5 -45.2,0 l 0,-67 z" /><path
           style="fill:#193634"
           inkscape:connector-curvature="0"
           id="path26"
           d="m 650.7,269.8 c -2.5,-1.3 -3.9,-4.2 -3,-6.9 l 42.7,-106.8 c 1.1,-2.8 4.2,-4.1 6.7,-3 1.6,0.5 2.5,1.7 3,3 l 42.6,106.8 c 1.1,2.7 -0.2,5.6 -2.8,6.9 -2.7,0.9 -5.8,-0.3 -6.9,-3 l -37.7,-95 -37.7,95 c -1.2,2.7 -4.2,3.9 -6.9,3 z m 22.6,0 c -2.7,-1.3 -3.9,-4.2 -2.8,-6.9 l 3.8,-9.5 c 0.9,-1.9 3,-3.3 4.9,-3.3 l 32.4,0 c 2.3,0 4.4,1.7 5,3.8 l 3.8,9.1 c 0.9,2.7 -0.2,5.6 -2.8,6.9 -2.7,0.9 -5.8,-0.2 -6.9,-3 l -2.5,-6.1 -25.4,0 -2.7,6.1 c -1,2.6 -4,3.8 -6.8,2.9 z m 9.2,-35.4 c 0,-3 2.3,-5.2 5.2,-5.2 l 7.5,0 -4.7,-11.6 c -0.9,-2.7 0.3,-5.8 2.8,-6.7 2.8,-1.1 5.8,0.2 6.9,2.7 l 7.7,18.8 c 0.3,0.6 0.5,1.3 0.5,2 0,3 -2.5,5.3 -5.5,5.3 l -15.2,0 c -2.8,0 -5.2,-2.3 -5.2,-5.3 z" /><path
           style="fill:#193634"
           inkscape:connector-curvature="0"
           id="path28"
           d="m 830.3,265.9 c 0,2.8 -2.2,5.2 -5.2,5.2 l -60.9,0 c -3,0 -5.3,-2.3 -5.3,-5.2 l 0,-104.8 c 0,-2.8 2.3,-5.2 5.3,-5.2 2.8,0 5.2,2.3 5.2,5.2 l 0,99.4 55.7,0 c 3,0.1 5.2,2.4 5.2,5.4 z M 785.1,156 c 3,0 5.3,2.3 5.3,5.2 l 0,78.4 34.8,0 c 3,0 5.2,2.3 5.2,5.3 0,2.8 -2.2,5.2 -5.2,5.2 l -40.1,0 c -2.8,0 -5.2,-2.3 -5.2,-5.2 l 0,-83.7 c 0,-2.9 2.3,-5.2 5.2,-5.2 z" /><path
           style="fill:#193634"
           inkscape:connector-curvature="0"
           id="path30"
           d="m 136,315.3 c 0,-3 2.3,-5.2 5.3,-5.2 l 73.1,0 c 2.8,0 5,2.2 5,5.2 0,2.8 -2.2,5.2 -5,5.2 l -73.1,0 c -3,0 -5.3,-2.4 -5.3,-5.2 z m 0,21 c 0,-3 2.3,-5.3 5.3,-5.3 l 26,0 c 3,0 5.3,2.3 5.3,5.3 l 0,83.4 c 0,3 -2.3,5.3 -5.3,5.3 -2.8,0 -5.3,-2.3 -5.3,-5.3 l 0,-78.4 -20.7,0 c -3,0 -5.3,-2.2 -5.3,-5 z m 83.4,0 c 0,2.8 -2.2,5 -5,5 l -21,0 0,78.4 c 0,3 -2.3,5.3 -5.3,5.3 -2.8,0 -5.2,-2.3 -5.2,-5.3 l 0,-83.4 c 0,-3 2.3,-5.3 5.2,-5.3 l 26.3,0 c 2.8,0 5,2.3 5,5.3 z" /><path
           style="fill:#193634"
           inkscape:connector-curvature="0"
           id="path32"
           d="m 342.8,356 c -2.8,0.9 -5.9,-0.6 -6.7,-3.4 -3.3,-10 -9.5,-18.6 -18.2,-24.9 -8.1,-5.8 -18.3,-9.4 -29.4,-9.4 -65.3,0 -65.3,98 0,98 11.1,0 21.3,-3.4 29.4,-9.4 8.6,-6.1 14.9,-14.7 18.2,-24.9 0.8,-2.8 3.9,-4.2 6.7,-3.4 2.8,0.8 4.2,3.9 3.4,6.7 -3.9,12.2 -11.7,22.9 -21.9,30.2 -10.2,7.2 -22.4,11.6 -35.8,11.6 -79.4,0 -79.4,-119.4 0,-119.4 13.5,0 25.7,4.2 35.8,11.4 10.2,7.5 18,18 21.9,30.4 0.8,2.7 -0.6,5.7 -3.4,6.5 z m -84.7,23 c 2.7,-1.4 5.8,-0.6 7.2,2 2.5,4.1 5.9,7.7 10,9.9 3.8,2.3 8.3,3.8 13.1,3.8 7.5,0 14.2,-3 18.9,-8 5,-4.9 8,-11.7 8,-19.4 0,-7.5 -3,-14.4 -8,-19.3 -4.7,-4.9 -11.4,-8 -18.9,-8 -4.9,0 -9.2,1.3 -13.1,3.6 -4.1,2.3 -7.5,5.8 -10,9.9 -1.4,2.7 -4.5,3.6 -7.2,2.2 -2.5,-1.4 -3.4,-4.7 -1.9,-7.4 3.3,-5.8 8,-10.6 13.6,-13.9 5.6,-3.3 12.1,-5 18.6,-5 10.5,0 19.9,4.2 26.8,11.1 6.6,6.9 10.8,16.3 10.8,26.8 0,10.5 -4.2,19.9 -10.8,26.8 -6.9,7 -16.3,11.3 -26.8,11.3 -6.6,0 -13,-1.9 -18.6,-5 -5.6,-3.4 -10.3,-8.3 -13.6,-14.1 -1.6,-2.7 -0.6,-5.7 1.9,-7.3 z" /><path
           style="fill:#193634"
           inkscape:connector-curvature="0"
           id="path34"
           d="m 372.7,425 c -2.8,0 -5.2,-2.3 -5.2,-5.2 l 0,-104.7 c 0,-2.8 2.3,-5.2 5.2,-5.2 3,0 5.3,2.3 5.3,5.2 l 0,104.7 c 0,2.9 -2.4,5.2 -5.3,5.2 z m 47.9,-114.1 c 2.5,1.7 3,4.9 1.4,7.2 l -24.1,34.4 c -1.6,2.3 -4.9,3 -7.2,1.3 -1.6,-1.1 -2.2,-2.7 -2.2,-4.5 l 0,-34.1 c 0,-2.8 2.3,-5.2 5.2,-5.2 3,0 5.2,2.3 5.2,5.2 l 0,17.8 14.6,-20.8 c 1.6,-2.4 4.7,-3 7.1,-1.3 z m 0,113.2 c -2.3,1.6 -5.5,1.1 -7.2,-1.3 l -14.6,-20.8 0,17.8 c 0,2.8 -2.2,5.2 -5.2,5.2 -2.8,0 -5.2,-2.3 -5.2,-5.2 l 0,-34.3 c 0,-5.3 6.6,-7.4 9.4,-3.1 l 24.1,34.3 c 1.6,2.5 1.2,5.7 -1.3,7.4 z m 25.5,-113.2 c 2.5,1.7 3,4.9 1.4,7.2 l -34.5,49.3 34.4,49.3 c 1.6,2.5 1.1,5.6 -1.4,7.4 -2.3,1.6 -5.5,1.1 -7.2,-1.3 l -36.5,-52.3 c -1.3,-1.7 -1.3,-4.2 0,-6.1 l 36.5,-52.3 c 1.8,-2.3 4.9,-2.9 7.3,-1.2 z" /><path
           style="fill:#193634"
           inkscape:connector-curvature="0"
           id="path36"
           d="m 456.4,423.8 c -2.5,-1.3 -3.9,-4.2 -3,-6.9 l 42.7,-106.8 c 1.1,-2.8 4.2,-4.1 6.7,-3 1.6,0.5 2.5,1.7 3,3 l 42.6,106.8 c 1.1,2.7 -0.2,5.6 -2.8,6.9 -2.7,0.9 -5.8,-0.3 -6.9,-3 l -37.7,-95 -37.7,95 c -1.3,2.7 -4.2,3.9 -6.9,3 z m 22.5,0 c -2.7,-1.3 -3.9,-4.2 -2.8,-6.9 l 3.8,-9.5 c 0.9,-1.9 3,-3.3 4.9,-3.3 l 32.4,0 c 2.3,0 4.4,1.7 5,3.8 l 3.8,9.1 c 0.9,2.7 -0.2,5.6 -2.8,6.9 -2.7,0.9 -5.8,-0.2 -6.9,-3 l -2.5,-6.1 -25.4,0 -2.7,6.1 c -1,2.6 -3.9,3.8 -6.8,2.9 z m 9.3,-35.4 c 0,-3 2.3,-5.2 5.2,-5.2 l 7.5,0 -4.7,-11.6 c -0.9,-2.7 0.3,-5.8 2.8,-6.7 2.8,-1.1 5.8,0.2 6.9,2.7 l 7.7,18.8 c 0.3,0.6 0.5,1.3 0.5,2 0,3 -2.5,5.3 -5.5,5.3 l -15.2,0 c -2.9,0 -5.2,-2.3 -5.2,-5.3 z" /><path
           style="fill:#193634"
           inkscape:connector-curvature="0"
           id="path38"
           d="m 569.9,425 c -3,0 -5.3,-2.3 -5.3,-5.3 l 0,-106.1 c 0,-3 2.3,-5.3 5.3,-5.3 3,0 5.3,2.3 5.3,5.3 l 0,106.1 c 0,3 -2.3,5.3 -5.3,5.3 z m 88.8,-115.8 c 2.3,1.7 2.8,5 1.3,7.4 l -33.2,47.6 c -1.7,2.5 -5.2,3.1 -7.5,1.3 -0.5,-0.3 -0.9,-0.8 -1.3,-1.4 l -33.2,-47.4 c -1.6,-2.3 -1.1,-5.6 1.3,-7.4 2.3,-1.7 5.8,-1.1 7.5,1.3 l 28.6,41.5 29,-41.5 c 1.7,-2.5 4.9,-3.1 7.5,-1.4 z M 653.5,425 c -3,0 -5.3,-2.3 -5.3,-5.3 l 0,-49.3 -21.4,30.8 c -1.7,2.3 -5.2,3 -7.5,1.4 -0.5,-0.5 -0.9,-0.9 -1.3,-1.4 l -21.4,-30.8 0,49.3 c 0,3 -2.3,5.3 -5.5,5.3 -2.8,0 -5.2,-2.3 -5.2,-5.3 l 0,-66.2 c 0,-1.6 0.8,-3.3 2.2,-4.2 2.3,-1.7 5.8,-1.1 7.5,1.3 l 26.6,38.5 26.9,-38.4 c 0.9,-1.4 2.5,-2.3 4.4,-2.3 3,0 5.3,2.3 5.3,5.2 l 0,66.2 c 0,2.9 -2.3,5.2 -5.3,5.2 z m 21.1,0 c -2.8,0 -5.2,-2.3 -5.2,-5.3 l 0,-106.1 c 0,-3 2.3,-5.3 5.2,-5.3 3.1,0 5.5,2.3 5.5,5.3 l 0,106.1 c 0,3 -2.3,5.3 -5.5,5.3 z" /><path
           style="fill:#193634"
           inkscape:connector-curvature="0"
           id="path40"
           d="m 698.6,423.8 c -2.5,-1.3 -3.9,-4.2 -3,-6.9 l 42.7,-106.8 c 1.1,-2.8 4.2,-4.1 6.7,-3 1.6,0.5 2.5,1.7 3,3 l 42.6,106.8 c 1.1,2.7 -0.2,5.6 -2.8,6.9 -2.7,0.9 -5.8,-0.3 -6.9,-3 l -37.7,-95 -37.7,95 c -1.3,2.7 -4.3,3.9 -6.9,3 z m 22.5,0 c -2.7,-1.3 -3.9,-4.2 -2.8,-6.9 l 3.8,-9.5 c 0.9,-1.9 3,-3.3 4.9,-3.3 l 32.4,0 c 2.3,0 4.4,1.7 5,3.8 l 3.8,9.1 c 0.9,2.7 -0.2,5.6 -2.8,6.9 -2.7,0.9 -5.8,-0.2 -6.9,-3 l -2.5,-6.1 -25.4,0 -2.7,6.1 c -1,2.6 -4,3.8 -6.8,2.9 z m 9.2,-35.4 c 0,-3 2.3,-5.2 5.2,-5.2 l 7.5,0 -4.7,-11.6 c -0.9,-2.7 0.3,-5.8 2.8,-6.7 2.8,-1.1 5.8,0.2 6.9,2.7 l 7.7,18.8 c 0.3,0.6 0.5,1.3 0.5,2 0,3 -2.5,5.3 -5.5,5.3 l -15.2,0 c -2.8,0 -5.2,-2.3 -5.2,-5.3 z" /><path
           style="fill:#193634"
           inkscape:connector-curvature="0"
           id="path42"
           d="m 811.9,425 c -2.8,0 -5.2,-2.3 -5.2,-5.2 l 0,-104.7 c 0,-2.8 2.3,-5.2 5.2,-5.2 3,0 5.3,2.3 5.3,5.2 l 0,104.7 c 0,2.9 -2.3,5.2 -5.3,5.2 z m 47.9,-114.1 c 2.5,1.7 3,4.9 1.4,7.2 l -24.1,34.4 c -1.6,2.3 -4.9,3 -7.2,1.3 -1.6,-1.1 -2.2,-2.7 -2.2,-4.5 l 0,-34.1 c 0,-2.8 2.3,-5.2 5.2,-5.2 3,0 5.2,2.3 5.2,5.2 l 0,17.8 14.6,-20.8 c 1.6,-2.4 4.8,-3 7.1,-1.3 z m 0,113.2 c -2.3,1.6 -5.5,1.1 -7.2,-1.3 L 838,402 l 0,17.8 c 0,2.8 -2.2,5.2 -5.2,5.2 -2.8,0 -5.2,-2.3 -5.2,-5.2 l 0,-34.3 c 0,-5.3 6.6,-7.4 9.4,-3.1 l 24.1,34.3 c 1.7,2.5 1.2,5.7 -1.3,7.4 z m 25.5,-113.2 c 2.5,1.7 3,4.9 1.4,7.2 l -34.4,49.3 34.4,49.3 c 1.6,2.5 1.1,5.6 -1.4,7.4 -2.3,1.6 -5.5,1.1 -7.2,-1.3 l -36.5,-52.3 c -1.3,-1.7 -1.3,-4.2 0,-6.1 l 36.5,-52.3 c 1.7,-2.3 4.9,-2.9 7.2,-1.2 z" /></g><g
         id="g44"><path
           style="fill:#558139"
           inkscape:connector-curvature="0"
           id="path46"
           d="m 276.5,156.3 c 2.7,1.3 3.9,4.1 2.8,6.9 l -44.6,109.4 c -1.9,4.4 -7.8,4.4 -9.7,0 L 180.4,163.2 c -0.9,-2.8 0.2,-5.6 3,-6.9 2.7,-0.9 5.6,0.3 6.7,3 L 230,257 269.8,159.3 c 1.1,-2.7 4.2,-3.9 6.7,-3 z m -69.7,0 c 2.8,-0.9 5.8,0.3 6.9,3 l 16.3,39.6 16.1,-39.6 c 0.9,-2.7 4.1,-3.9 6.7,-3 2.7,1.3 3.9,4.1 3,6.9 l -21.1,51.5 c -1.7,4.2 -7.8,4.2 -9.7,0 l -20.8,-51.5 c -1.3,-2.8 0.1,-5.7 2.6,-6.9 z" /><path
           style="fill:#558139"
           inkscape:connector-curvature="0"
           id="path48"
           d="m 298.7,271 c -3,0 -5.3,-2.3 -5.3,-5.2 l 0,-104.7 c 0,-2.8 2.3,-5.2 5.3,-5.2 2.8,0 5.2,2.3 5.2,5.2 l 0,104.7 c 0,2.9 -2.4,5.2 -5.2,5.2 z m 21,0 c -3,0 -5.3,-2.3 -5.3,-5.2 l 0,-104.7 c 0,-2.8 2.3,-5.2 5.3,-5.2 2.8,0 5.2,2.3 5.2,5.2 l 0,104.7 c 0,2.9 -2.4,5.2 -5.2,5.2 z" /><path
           style="fill:#558139"
           inkscape:connector-curvature="0"
           id="path50"
           d="m 350.1,265.9 0,-104.8 c 0,-2.8 2.5,-5.2 5.3,-5.2 l 41.2,0 c 32.1,0 48.2,39.3 25.7,62.5 -4.5,4.5 -10.2,8 -16.4,9.5 l 24.3,34.8 c 3.9,5.6 -4.7,11.7 -8.5,6.1 l -29,-41.5 c -3.1,-4.1 0,-8.6 3.9,-8.6 23,0 34.3,-28.5 18.2,-44.8 -4.7,-4.7 -11.1,-7.5 -18.2,-7.5 l -36,0 0,99.4 c 0,7 -10.5,7 -10.5,0.1 z m 39.6,-57.6 c -8.1,-0.5 -8.5,-10.3 0,-10.3 4.9,0 10.6,0.8 10.6,-5.3 0,-3.1 -2.5,-5.3 -5.5,-5.3 l -18.6,0 c -6.9,0 -6.9,-10.5 0,-10.5 l 18.6,0 c 9.5,0 15.8,8 15.8,16 0,8.8 -7.2,15.5 -15.8,15.5 -1.4,-0.1 -3.4,0 -5.1,-0.1 z m 6.2,60.5 -14.4,-20.8 0,17.8 c 0,6.9 -10.5,6.9 -10.5,0 l 0,-34.1 c 0,-5.6 6.6,-7.2 9.5,-3.3 l 24,34.3 c 4,5.7 -4.5,11.8 -8.6,6.1 z" /><path
           style="fill:#558139"
           inkscape:connector-curvature="0"
           id="path52"
           d="m 438.4,161.3 c 0,-3 2.3,-5.2 5.3,-5.2 l 73.1,0 c 2.8,0 5,2.2 5,5.2 0,2.8 -2.2,5.2 -5,5.2 l -73.1,0 c -3,0 -5.3,-2.4 -5.3,-5.2 z m 0,21 c 0,-3 2.3,-5.3 5.3,-5.3 l 26,0 c 3,0 5.3,2.3 5.3,5.3 l 0,83.4 c 0,3 -2.3,5.3 -5.3,5.3 -2.8,0 -5.3,-2.3 -5.3,-5.3 l 0,-78.4 -20.7,0 c -3,0 -5.3,-2.2 -5.3,-5 z m 83.4,0 c 0,2.8 -2.2,5 -5,5 l -21,0 0,78.4 c 0,3 -2.3,5.3 -5.3,5.3 -2.8,0 -5.2,-2.3 -5.2,-5.3 l 0,-83.4 c 0,-3 2.3,-5.3 5.2,-5.3 l 26.3,0 c 2.8,0 5,2.3 5,5.3 z" /><path
           style="fill:#558139"
           inkscape:connector-curvature="0"
           id="path54"
           d="m 538.1,229.2 0,-68.2 c 0,-3 2.3,-5.3 5.2,-5.3 3,0 5.3,2.3 5.3,5.3 l 0,68.2 c 0,43.8 67.2,43.8 67.2,0 l 0,-68.2 c 0,-3 2.2,-5.3 5.2,-5.3 2.8,0 5.2,2.3 5.2,5.3 l 0,68.2 c -0.1,57.5 -88.1,57.3 -88.1,0 z M 559.5,161 c 0,-3 2.3,-5.3 5.2,-5.3 3,0 5.3,2.3 5.3,5.3 l 0,67 c 0,16.6 24.3,16.6 24.3,0 l 0,-67 c 0,-3 2.2,-5.3 5.3,-5.3 2.8,0 5.2,2.3 5.2,5.3 l 0,67 c 0,30.5 -45.2,30.5 -45.2,0 l 0,-67 z" /><path
           style="fill:#558139"
           inkscape:connector-curvature="0"
           id="path56"
           d="m 644.1,269.8 c -2.5,-1.3 -3.9,-4.2 -3,-6.9 l 42.7,-106.8 c 1.1,-2.8 4.2,-4.1 6.7,-3 1.6,0.5 2.5,1.7 3,3 l 42.6,106.8 c 1.1,2.7 -0.2,5.6 -2.8,6.9 -2.7,0.9 -5.8,-0.3 -6.9,-3 l -37.7,-95 -37.7,95 c -1.3,2.7 -4.3,3.9 -6.9,3 z m 22.5,0 c -2.7,-1.3 -3.9,-4.2 -2.8,-6.9 l 3.8,-9.5 c 0.9,-1.9 3,-3.3 4.9,-3.3 l 32.4,0 c 2.3,0 4.4,1.7 5,3.8 l 3.8,9.1 c 0.9,2.7 -0.2,5.6 -2.8,6.9 -2.7,0.9 -5.8,-0.2 -6.9,-3 l -2.5,-6.1 -25.5,0 -2.7,6.1 c -0.9,2.6 -3.9,3.8 -6.7,2.9 z m 9.2,-35.4 c 0,-3 2.3,-5.2 5.2,-5.2 l 7.5,0 -4.7,-11.6 c -0.9,-2.7 0.3,-5.8 2.8,-6.7 2.8,-1.1 5.8,0.2 6.9,2.7 l 7.7,18.8 c 0.3,0.6 0.5,1.3 0.5,2 0,3 -2.5,5.3 -5.5,5.3 l -15.2,0 c -2.8,0 -5.2,-2.3 -5.2,-5.3 z" /><path
           style="fill:#558139"
           inkscape:connector-curvature="0"
           id="path58"
           d="m 823.6,265.9 c 0,2.8 -2.2,5.2 -5.2,5.2 l -60.9,0 c -3,0 -5.3,-2.3 -5.3,-5.2 l 0,-104.8 c 0,-2.8 2.3,-5.2 5.3,-5.2 2.8,0 5.2,2.3 5.2,5.2 l 0,99.4 55.7,0 c 3,0.1 5.2,2.4 5.2,5.4 z M 778.4,156 c 3,0 5.3,2.3 5.3,5.2 l 0,78.4 34.8,0 c 3,0 5.2,2.3 5.2,5.3 0,2.8 -2.2,5.2 -5.2,5.2 l -40.1,0 c -2.8,0 -5.2,-2.3 -5.2,-5.2 l 0,-83.7 c 0,-2.9 2.3,-5.2 5.2,-5.2 z" /><path
           style="fill:#558139"
           inkscape:connector-curvature="0"
           id="path60"
           d="m 129.3,315.3 c 0,-3 2.3,-5.2 5.3,-5.2 l 73.1,0 c 2.8,0 5,2.2 5,5.2 0,2.8 -2.2,5.2 -5,5.2 l -73.1,0 c -3,0 -5.3,-2.4 -5.3,-5.2 z m 0,21 c 0,-3 2.3,-5.3 5.3,-5.3 l 26,0 c 3,0 5.3,2.3 5.3,5.3 l 0,83.4 c 0,3 -2.3,5.3 -5.3,5.3 -2.8,0 -5.3,-2.3 -5.3,-5.3 l 0,-78.4 -20.7,0 c -3,0 -5.3,-2.2 -5.3,-5 z m 83.4,0 c 0,2.8 -2.2,5 -5,5 l -21,0 0,78.4 c 0,3 -2.3,5.3 -5.3,5.3 -2.8,0 -5.2,-2.3 -5.2,-5.3 l 0,-83.4 c 0,-3 2.3,-5.3 5.2,-5.3 l 26.3,0 c 2.8,0 5,2.3 5,5.3 z" /><path
           style="fill:#558139"
           inkscape:connector-curvature="0"
           id="path62"
           d="m 336.1,356 c -2.8,0.9 -5.9,-0.6 -6.7,-3.4 -3.3,-10 -9.5,-18.6 -18.2,-24.9 -8.1,-5.8 -18.3,-9.4 -29.4,-9.4 -65.3,0 -65.3,98 0,98 11.1,0 21.3,-3.4 29.4,-9.4 8.6,-6.1 14.9,-14.7 18.2,-24.9 0.8,-2.8 3.9,-4.2 6.7,-3.4 2.8,0.8 4.2,3.9 3.4,6.7 -3.9,12.2 -11.7,22.9 -21.9,30.2 -10.2,7.2 -22.4,11.6 -35.8,11.6 -79.4,0 -79.4,-119.4 0,-119.4 13.5,0 25.7,4.2 35.8,11.4 10.2,7.5 18,18 21.9,30.4 0.8,2.7 -0.6,5.7 -3.4,6.5 z m -84.7,23 c 2.7,-1.4 5.8,-0.6 7.2,2 2.5,4.1 5.9,7.7 10,9.9 3.8,2.3 8.3,3.8 13.1,3.8 7.5,0 14.2,-3 18.9,-8 5,-4.9 8,-11.7 8,-19.4 0,-7.5 -3,-14.4 -8,-19.3 -4.7,-4.9 -11.4,-8 -18.9,-8 -4.9,0 -9.2,1.3 -13.1,3.6 -4.1,2.3 -7.5,5.8 -10,9.9 -1.4,2.7 -4.5,3.6 -7.2,2.2 -2.5,-1.4 -3.4,-4.7 -1.9,-7.4 3.3,-5.8 8,-10.6 13.6,-13.9 5.6,-3.3 12.1,-5 18.6,-5 10.5,0 19.9,4.2 26.8,11.1 6.6,6.9 10.8,16.3 10.8,26.8 0,10.5 -4.2,19.9 -10.8,26.8 -6.9,7 -16.3,11.3 -26.8,11.3 -6.6,0 -13,-1.9 -18.6,-5 -5.6,-3.4 -10.3,-8.3 -13.6,-14.1 -1.6,-2.7 -0.6,-5.7 1.9,-7.3 z" /><path
           style="fill:#558139"
           inkscape:connector-curvature="0"
           id="path64"
           d="m 366,425 c -2.8,0 -5.2,-2.3 -5.2,-5.2 l 0,-104.7 c 0,-2.8 2.3,-5.2 5.2,-5.2 3,0 5.3,2.3 5.3,5.2 l 0,104.7 c 0,2.9 -2.4,5.2 -5.3,5.2 z m 47.9,-114.1 c 2.5,1.7 3,4.9 1.4,7.2 l -24.1,34.4 c -1.6,2.3 -4.9,3 -7.2,1.3 -1.6,-1.1 -2.2,-2.7 -2.2,-4.5 l 0,-34.1 c 0,-2.8 2.3,-5.2 5.2,-5.2 3,0 5.2,2.3 5.2,5.2 l 0,17.8 14.6,-20.8 c 1.6,-2.4 4.7,-3 7.1,-1.3 z m 0,113.2 c -2.3,1.6 -5.5,1.1 -7.2,-1.3 l -14.6,-20.8 0,17.8 c 0,2.8 -2.2,5.2 -5.2,5.2 -2.8,0 -5.2,-2.3 -5.2,-5.2 l 0,-34.3 c 0,-5.3 6.6,-7.4 9.4,-3.1 l 24.1,34.3 c 1.6,2.5 1.2,5.7 -1.3,7.4 z m 25.5,-113.2 c 2.5,1.7 3,4.9 1.4,7.2 l -34.4,49.3 34.4,49.3 c 1.6,2.5 1.1,5.6 -1.4,7.4 -2.3,1.6 -5.5,1.1 -7.2,-1.3 l -36.5,-52.3 c -1.3,-1.7 -1.3,-4.2 0,-6.1 l 36.5,-52.3 c 1.7,-2.3 4.8,-2.9 7.2,-1.2 z" /><path
           style="fill:#558139"
           inkscape:connector-curvature="0"
           id="path66"
           d="m 449.7,423.8 c -2.5,-1.3 -3.9,-4.2 -3,-6.9 l 42.7,-106.8 c 1.1,-2.8 4.2,-4.1 6.7,-3 1.6,0.5 2.5,1.7 3,3 l 42.6,106.8 c 1.1,2.7 -0.2,5.6 -2.8,6.9 -2.7,0.9 -5.8,-0.3 -6.9,-3 l -37.7,-95 -37.7,95 c -1.3,2.7 -4.2,3.9 -6.9,3 z m 22.6,0 c -2.7,-1.3 -3.9,-4.2 -2.8,-6.9 l 3.8,-9.5 c 0.9,-1.9 3,-3.3 4.9,-3.3 l 32.4,0 c 2.3,0 4.4,1.7 5,3.8 l 3.8,9.1 c 0.9,2.7 -0.2,5.6 -2.8,6.9 -2.7,0.9 -5.8,-0.2 -6.9,-3 l -2.5,-6.1 -25.4,0 -2.7,6.1 c -1.1,2.6 -4,3.8 -6.8,2.9 z m 9.2,-35.4 c 0,-3 2.3,-5.2 5.2,-5.2 l 7.5,0 -4.7,-11.6 c -0.9,-2.7 0.3,-5.8 2.8,-6.7 2.8,-1.1 5.8,0.2 6.9,2.7 l 7.7,18.8 c 0.3,0.6 0.5,1.3 0.5,2 0,3 -2.5,5.3 -5.5,5.3 l -15.2,0 c -2.9,0 -5.2,-2.3 -5.2,-5.3 z" /><path
           style="fill:#558139"
           inkscape:connector-curvature="0"
           id="path68"
           d="m 563.2,425 c -3,0 -5.3,-2.3 -5.3,-5.3 l 0,-106.1 c 0,-3 2.3,-5.3 5.3,-5.3 3,0 5.3,2.3 5.3,5.3 l 0,106.1 c 0,3 -2.3,5.3 -5.3,5.3 z M 652,309.2 c 2.3,1.7 2.8,5 1.3,7.4 L 620,364.1 c -1.7,2.5 -5.2,3.1 -7.5,1.3 -0.5,-0.3 -0.9,-0.8 -1.3,-1.4 L 578,316.6 c -1.6,-2.3 -1.1,-5.6 1.3,-7.4 2.3,-1.7 5.8,-1.1 7.5,1.3 l 28.6,41.5 29,-41.5 c 1.8,-2.4 5.1,-3 7.6,-1.3 z M 646.8,425 c -3,0 -5.3,-2.3 -5.3,-5.3 l 0,-49.3 -21.5,30.8 c -1.7,2.3 -5.2,3 -7.5,1.4 -0.5,-0.5 -0.9,-0.9 -1.3,-1.4 l -21.4,-30.8 0,49.3 c 0,3 -2.3,5.3 -5.5,5.3 -2.8,0 -5.2,-2.3 -5.2,-5.3 l 0,-66.2 c 0,-1.6 0.8,-3.3 2.2,-4.2 2.3,-1.7 5.8,-1.1 7.5,1.3 l 26.6,38.5 26.9,-38.4 c 0.9,-1.4 2.5,-2.3 4.4,-2.3 3,0 5.3,2.3 5.3,5.2 l 0,66.2 c 0.1,2.9 -2.2,5.2 -5.2,5.2 z m 21.1,0 c -2.8,0 -5.2,-2.3 -5.2,-5.3 l 0,-106.1 c 0,-3 2.3,-5.3 5.2,-5.3 3.1,0 5.5,2.3 5.5,5.3 l 0,106.1 c 0,3 -2.3,5.3 -5.5,5.3 z" /><path
           style="fill:#558139"
           inkscape:connector-curvature="0"
           id="path70"
           d="m 691.9,423.8 c -2.5,-1.3 -3.9,-4.2 -3,-6.9 l 42.7,-106.8 c 1.1,-2.8 4.2,-4.1 6.7,-3 1.6,0.5 2.5,1.7 3,3 l 42.6,106.8 c 1.1,2.7 -0.2,5.6 -2.8,6.9 -2.7,0.9 -5.8,-0.3 -6.9,-3 l -37.7,-95 -37.7,95 c -1.3,2.7 -4.3,3.9 -6.9,3 z m 22.5,0 c -2.7,-1.3 -3.9,-4.2 -2.8,-6.9 l 3.8,-9.5 c 0.9,-1.9 3,-3.3 4.9,-3.3 l 32.4,0 c 2.3,0 4.4,1.7 5,3.8 l 3.8,9.1 c 0.9,2.7 -0.2,5.6 -2.8,6.9 -2.7,0.9 -5.8,-0.2 -6.9,-3 l -2.5,-6.1 -25.4,0 -2.7,6.1 c -1,2.6 -4,3.8 -6.8,2.9 z m 9.3,-35.4 c 0,-3 2.3,-5.2 5.2,-5.2 l 7.5,0 -4.7,-11.6 c -0.9,-2.7 0.3,-5.8 2.8,-6.7 2.8,-1.1 5.8,0.2 6.9,2.7 l 7.7,18.8 c 0.3,0.6 0.5,1.3 0.5,2 0,3 -2.5,5.3 -5.5,5.3 l -15.2,0 c -2.9,0 -5.2,-2.3 -5.2,-5.3 z" /><path
           style="fill:#558139"
           inkscape:connector-curvature="0"
           id="path72"
           d="m 805.2,425 c -2.8,0 -5.2,-2.3 -5.2,-5.2 l 0,-104.7 c 0,-2.8 2.3,-5.2 5.2,-5.2 3,0 5.3,2.3 5.3,5.2 l 0,104.7 c 0,2.9 -2.3,5.2 -5.3,5.2 z m 47.9,-114.1 c 2.5,1.7 3,4.9 1.4,7.2 l -24.1,34.4 c -1.6,2.3 -4.9,3 -7.2,1.3 -1.6,-1.1 -2.2,-2.7 -2.2,-4.5 l 0,-34.1 c 0,-2.8 2.3,-5.2 5.2,-5.2 3,0 5.2,2.3 5.2,5.2 l 0,17.8 14.6,-20.8 c 1.6,-2.4 4.8,-3 7.1,-1.3 z m 0,113.2 c -2.3,1.6 -5.5,1.1 -7.2,-1.3 l -14.5,-20.8 0,17.8 c 0,2.8 -2.2,5.2 -5.2,5.2 -2.8,0 -5.2,-2.3 -5.2,-5.2 l 0,-34.3 c 0,-5.3 6.6,-7.4 9.4,-3.1 l 24.1,34.3 c 1.6,2.5 1.1,5.7 -1.4,7.4 z m 25.5,-113.2 c 2.5,1.7 3,4.9 1.4,7.2 l -34.4,49.3 34.4,49.3 c 1.6,2.5 1.1,5.6 -1.4,7.4 -2.3,1.6 -5.5,1.1 -7.2,-1.3 L 835,370.6 c -1.3,-1.7 -1.3,-4.2 0,-6.1 l 36.5,-52.3 c 1.7,-2.4 4.8,-3 7.1,-1.3 z" /></g><g
         id="g74"><path
           style="fill:#8dc63f"
           inkscape:connector-curvature="0"
           id="path76"
           d="m 270.5,156.3 c 2.7,1.3 3.9,4.1 2.8,6.9 l -44.6,109.4 c -1.9,4.4 -7.8,4.4 -9.7,0 L 174.4,163.2 c -0.9,-2.8 0.2,-5.6 3,-6.9 2.7,-0.9 5.6,0.3 6.7,3 L 224,257 263.8,159.3 c 1.1,-2.7 4.2,-3.9 6.7,-3 z m -69.7,0 c 2.8,-0.9 5.8,0.3 6.9,3 l 16.3,39.6 16.1,-39.6 c 0.9,-2.7 4.1,-3.9 6.7,-3 2.7,1.3 3.9,4.1 3,6.9 l -21.1,51.5 c -1.7,4.2 -7.8,4.2 -9.7,0 l -20.8,-51.5 c -1.3,-2.8 0.1,-5.7 2.6,-6.9 z" /><path
           style="fill:#8dc63f"
           inkscape:connector-curvature="0"
           id="path78"
           d="m 292.7,271 c -3,0 -5.3,-2.3 -5.3,-5.2 l 0,-104.7 c 0,-2.8 2.3,-5.2 5.3,-5.2 2.8,0 5.2,2.3 5.2,5.2 l 0,104.7 c 0,2.9 -2.4,5.2 -5.2,5.2 z m 21,0 c -3,0 -5.3,-2.3 -5.3,-5.2 l 0,-104.7 c 0,-2.8 2.3,-5.2 5.3,-5.2 2.8,0 5.2,2.3 5.2,5.2 l 0,104.7 c 0,2.9 -2.4,5.2 -5.2,5.2 z" /><path
           style="fill:#8dc63f"
           inkscape:connector-curvature="0"
           id="path80"
           d="m 344.1,265.9 0,-104.8 c 0,-2.8 2.5,-5.2 5.3,-5.2 l 41.2,0 c 32.1,0 48.2,39.3 25.7,62.5 -4.5,4.5 -10.2,8 -16.4,9.5 l 24.3,34.8 c 3.9,5.6 -4.7,11.7 -8.5,6.1 l -29,-41.5 c -3.1,-4.1 0,-8.6 3.9,-8.6 23,0 34.3,-28.5 18.2,-44.8 -4.7,-4.7 -11.1,-7.5 -18.2,-7.5 l -36,0 0,99.4 c 0,7 -10.5,7 -10.5,0.1 z m 39.6,-57.6 c -8.1,-0.5 -8.5,-10.3 0,-10.3 4.9,0 10.6,0.8 10.6,-5.3 0,-3.1 -2.5,-5.3 -5.5,-5.3 l -18.6,0 c -6.9,0 -6.9,-10.5 0,-10.5 l 18.6,0 c 9.5,0 15.8,8 15.8,16 0,8.8 -7.2,15.5 -15.8,15.5 -1.4,-0.1 -3.4,0 -5.1,-0.1 z m 6.2,60.5 -14.4,-20.8 0,17.8 c 0,6.9 -10.5,6.9 -10.5,0 l 0,-34.1 c 0,-5.6 6.6,-7.2 9.5,-3.3 l 24,34.3 c 4,5.7 -4.5,11.8 -8.6,6.1 z" /><path
           style="fill:#8dc63f"
           inkscape:connector-curvature="0"
           id="path82"
           d="m 432.4,161.3 c 0,-3 2.3,-5.2 5.3,-5.2 l 73.1,0 c 2.8,0 5,2.2 5,5.2 0,2.8 -2.2,5.2 -5,5.2 l -73.1,0 c -3,0 -5.3,-2.4 -5.3,-5.2 z m 0,21 c 0,-3 2.3,-5.3 5.3,-5.3 l 26,0 c 3,0 5.3,2.3 5.3,5.3 l 0,83.4 c 0,3 -2.3,5.3 -5.3,5.3 -2.8,0 -5.3,-2.3 -5.3,-5.3 l 0,-78.4 -20.7,0 c -3,0 -5.3,-2.2 -5.3,-5 z m 83.4,0 c 0,2.8 -2.2,5 -5,5 l -21,0 0,78.4 c 0,3 -2.3,5.3 -5.3,5.3 -2.8,0 -5.2,-2.3 -5.2,-5.3 l 0,-83.4 c 0,-3 2.3,-5.3 5.2,-5.3 l 26.3,0 c 2.8,0 5,2.3 5,5.3 z" /><path
           style="fill:#8dc63f"
           inkscape:connector-curvature="0"
           id="path84"
           d="m 532.1,229.2 0,-68.2 c 0,-3 2.3,-5.3 5.2,-5.3 3,0 5.3,2.3 5.3,5.3 l 0,68.2 c 0,43.8 67.2,43.8 67.2,0 l 0,-68.2 c 0,-3 2.2,-5.3 5.2,-5.3 2.8,0 5.2,2.3 5.2,5.3 l 0,68.2 c -0.2,57.5 -88.1,57.3 -88.1,0 z M 553.5,161 c 0,-3 2.3,-5.3 5.2,-5.3 3,0 5.3,2.3 5.3,5.3 l 0,67 c 0,16.6 24.3,16.6 24.3,0 l 0,-67 c 0,-3 2.2,-5.3 5.3,-5.3 2.8,0 5.2,2.3 5.2,5.3 l 0,67 c 0,30.5 -45.2,30.5 -45.2,0 l 0,-67 z" /><path
           style="fill:#8dc63f"
           inkscape:connector-curvature="0"
           id="path86"
           d="m 638,269.8 c -2.5,-1.3 -3.9,-4.2 -3,-6.9 l 42.7,-106.8 c 1.1,-2.8 4.2,-4.1 6.7,-3 1.6,0.5 2.5,1.7 3,3 L 730,262.9 c 1.1,2.7 -0.2,5.6 -2.8,6.9 -2.7,0.9 -5.8,-0.3 -6.9,-3 l -37.7,-95 -37.7,95 c -1.2,2.7 -4.2,3.9 -6.9,3 z m 22.6,0 c -2.7,-1.3 -3.9,-4.2 -2.8,-6.9 l 3.8,-9.5 c 0.9,-1.9 3,-3.3 4.9,-3.3 l 32.4,0 c 2.3,0 4.4,1.7 5,3.8 l 3.8,9.1 c 0.9,2.7 -0.2,5.6 -2.8,6.9 -2.7,0.9 -5.8,-0.2 -6.9,-3 l -2.5,-6.1 -25.5,0 -2.7,6.1 c -0.9,2.6 -3.9,3.8 -6.7,2.9 z m 9.2,-35.4 c 0,-3 2.3,-5.2 5.2,-5.2 l 7.5,0 -4.7,-11.6 c -0.9,-2.7 0.3,-5.8 2.8,-6.7 2.8,-1.1 5.8,0.2 6.9,2.7 l 7.7,18.8 c 0.3,0.6 0.5,1.3 0.5,2 0,3 -2.5,5.3 -5.5,5.3 l -15.2,0 c -2.8,0 -5.2,-2.3 -5.2,-5.3 z" /><path
           style="fill:#8dc63f"
           inkscape:connector-curvature="0"
           id="path88"
           d="m 817.6,265.9 c 0,2.8 -2.2,5.2 -5.2,5.2 l -60.9,0 c -3,0 -5.3,-2.3 -5.3,-5.2 l 0,-104.8 c 0,-2.8 2.3,-5.2 5.3,-5.2 2.8,0 5.2,2.3 5.2,5.2 l 0,99.4 55.7,0 c 3,0.1 5.2,2.4 5.2,5.4 z M 772.4,156 c 3,0 5.3,2.3 5.3,5.2 l 0,78.4 34.8,0 c 3,0 5.2,2.3 5.2,5.3 0,2.8 -2.2,5.2 -5.2,5.2 l -40.1,0 c -2.8,0 -5.2,-2.3 -5.2,-5.2 l 0,-83.7 c 0,-2.9 2.3,-5.2 5.2,-5.2 z" /><path
           style="fill:#8dc63f"
           inkscape:connector-curvature="0"
           id="path90"
           d="m 123.3,315.3 c 0,-3 2.3,-5.2 5.3,-5.2 l 73.1,0 c 2.8,0 5,2.2 5,5.2 0,2.8 -2.2,5.2 -5,5.2 l -73.1,0 c -3,0 -5.3,-2.4 -5.3,-5.2 z m 0,21 c 0,-3 2.3,-5.3 5.3,-5.3 l 26,0 c 3,0 5.3,2.3 5.3,5.3 l 0,83.4 c 0,3 -2.3,5.3 -5.3,5.3 -2.8,0 -5.3,-2.3 -5.3,-5.3 l 0,-78.4 -20.7,0 c -3,0 -5.3,-2.2 -5.3,-5 z m 83.4,0 c 0,2.8 -2.2,5 -5,5 l -21,0 0,78.4 c 0,3 -2.3,5.3 -5.3,5.3 -2.8,0 -5.2,-2.3 -5.2,-5.3 l 0,-83.4 c 0,-3 2.3,-5.3 5.2,-5.3 l 26.3,0 c 2.8,0 5,2.3 5,5.3 z" /><path
           style="fill:#8dc63f"
           inkscape:connector-curvature="0"
           id="path92"
           d="m 330.1,356 c -2.8,0.9 -5.9,-0.6 -6.7,-3.4 -3.3,-10 -9.5,-18.6 -18.2,-24.9 -8.1,-5.8 -18.3,-9.4 -29.4,-9.4 -65.3,0 -65.3,98 0,98 11.1,0 21.3,-3.4 29.4,-9.4 8.6,-6.1 14.9,-14.7 18.2,-24.9 0.8,-2.8 3.9,-4.2 6.7,-3.4 2.8,0.8 4.2,3.9 3.4,6.7 -3.9,12.2 -11.7,22.9 -21.9,30.2 -10.2,7.2 -22.4,11.6 -35.8,11.6 -79.4,0 -79.4,-119.4 0,-119.4 13.5,0 25.7,4.2 35.8,11.4 10.2,7.5 18,18 21.9,30.4 0.8,2.7 -0.6,5.7 -3.4,6.5 z m -84.7,23 c 2.7,-1.4 5.8,-0.6 7.2,2 2.5,4.1 5.9,7.7 10,9.9 3.8,2.3 8.3,3.8 13.1,3.8 7.5,0 14.2,-3 18.9,-8 5,-4.9 8,-11.7 8,-19.4 0,-7.5 -3,-14.4 -8,-19.3 -4.7,-4.9 -11.4,-8 -18.9,-8 -4.9,0 -9.2,1.3 -13.1,3.6 -4.1,2.3 -7.5,5.8 -10,9.9 -1.4,2.7 -4.5,3.6 -7.2,2.2 -2.5,-1.4 -3.4,-4.7 -1.9,-7.4 3.3,-5.8 8,-10.6 13.6,-13.9 5.6,-3.3 12.1,-5 18.6,-5 10.5,0 19.9,4.2 26.8,11.1 6.6,6.9 10.8,16.3 10.8,26.8 0,10.5 -4.2,19.9 -10.8,26.8 -6.9,7 -16.3,11.3 -26.8,11.3 -6.6,0 -13,-1.9 -18.6,-5 -5.6,-3.4 -10.3,-8.3 -13.6,-14.1 -1.6,-2.7 -0.6,-5.7 1.9,-7.3 z" /><path
           style="fill:#8dc63f"
           inkscape:connector-curvature="0"
           id="path94"
           d="m 360,425 c -2.8,0 -5.2,-2.3 -5.2,-5.2 l 0,-104.7 c 0,-2.8 2.3,-5.2 5.2,-5.2 3,0 5.3,2.3 5.3,5.2 l 0,104.7 c 0,2.9 -2.4,5.2 -5.3,5.2 z m 47.9,-114.1 c 2.5,1.7 3,4.9 1.4,7.2 l -24.1,34.4 c -1.6,2.3 -4.9,3 -7.2,1.3 -1.6,-1.1 -2.2,-2.7 -2.2,-4.5 l 0,-34.1 c 0,-2.8 2.3,-5.2 5.2,-5.2 3,0 5.2,2.3 5.2,5.2 l 0,17.8 14.6,-20.8 c 1.6,-2.4 4.7,-3 7.1,-1.3 z m 0,113.2 c -2.3,1.6 -5.5,1.1 -7.2,-1.3 l -14.6,-20.8 0,17.8 c 0,2.8 -2.2,5.2 -5.2,5.2 -2.8,0 -5.2,-2.3 -5.2,-5.2 l 0,-34.3 c 0,-5.3 6.6,-7.4 9.4,-3.1 l 24.1,34.3 c 1.6,2.5 1.2,5.7 -1.3,7.4 z m 25.5,-113.2 c 2.5,1.7 3,4.9 1.4,7.2 l -34.4,49.3 34.4,49.3 c 1.6,2.5 1.1,5.6 -1.4,7.4 -2.3,1.6 -5.5,1.1 -7.2,-1.3 l -36.5,-52.3 c -1.3,-1.7 -1.3,-4.2 0,-6.1 l 36.5,-52.3 c 1.7,-2.3 4.8,-2.9 7.2,-1.2 z" /><path
           style="fill:#8dc63f"
           inkscape:connector-curvature="0"
           id="path96"
           d="m 443.7,423.8 c -2.5,-1.3 -3.9,-4.2 -3,-6.9 l 42.7,-106.8 c 1.1,-2.8 4.2,-4.1 6.7,-3 1.6,0.5 2.5,1.7 3,3 l 42.6,106.8 c 1.1,2.7 -0.2,5.6 -2.8,6.9 -2.7,0.9 -5.8,-0.3 -6.9,-3 l -37.7,-95 -37.7,95 c -1.3,2.7 -4.2,3.9 -6.9,3 z m 22.5,0 c -2.7,-1.3 -3.9,-4.2 -2.8,-6.9 l 3.8,-9.5 c 0.9,-1.9 3,-3.3 4.9,-3.3 l 32.4,0 c 2.3,0 4.4,1.7 5,3.8 l 3.8,9.1 c 0.9,2.7 -0.2,5.6 -2.8,6.9 -2.7,0.9 -5.8,-0.2 -6.9,-3 l -2.5,-6.1 -25.4,0 -2.7,6.1 c -1,2.6 -3.9,3.8 -6.8,2.9 z m 9.3,-35.4 c 0,-3 2.3,-5.2 5.2,-5.2 l 7.5,0 -4.7,-11.6 c -0.9,-2.7 0.3,-5.8 2.8,-6.7 2.8,-1.1 5.8,0.2 6.9,2.7 l 7.7,18.8 c 0.3,0.6 0.5,1.3 0.5,2 0,3 -2.5,5.3 -5.5,5.3 l -15.2,0 c -2.9,0 -5.2,-2.3 -5.2,-5.3 z" /><path
           style="fill:#8dc63f"
           inkscape:connector-curvature="0"
           id="path98"
           d="m 557.2,425 c -3,0 -5.3,-2.3 -5.3,-5.3 l 0,-106.1 c 0,-3 2.3,-5.3 5.3,-5.3 3,0 5.3,2.3 5.3,5.3 l 0,106.1 c 0,3 -2.3,5.3 -5.3,5.3 z M 646,309.2 c 2.3,1.7 2.8,5 1.3,7.4 L 614,364.1 c -1.7,2.5 -5.2,3.1 -7.5,1.3 -0.5,-0.3 -0.9,-0.8 -1.3,-1.4 L 572,316.6 c -1.6,-2.3 -1.1,-5.6 1.3,-7.4 2.3,-1.7 5.8,-1.1 7.5,1.3 l 28.6,41.5 29,-41.5 c 1.8,-2.4 5.1,-3 7.6,-1.3 z M 640.8,425 c -3,0 -5.3,-2.3 -5.3,-5.3 l 0,-49.3 -21.5,30.8 c -1.7,2.3 -5.2,3 -7.5,1.4 -0.5,-0.5 -0.9,-0.9 -1.3,-1.4 l -21.4,-30.8 0,49.3 c 0,3 -2.3,5.3 -5.5,5.3 -2.8,0 -5.2,-2.3 -5.2,-5.3 l 0,-66.2 c 0,-1.6 0.8,-3.3 2.2,-4.2 2.3,-1.7 5.8,-1.1 7.5,1.3 l 26.6,38.5 26.9,-38.4 c 0.9,-1.4 2.5,-2.3 4.4,-2.3 3,0 5.3,2.3 5.3,5.2 l 0,66.2 c 0.1,2.9 -2.2,5.2 -5.2,5.2 z m 21.1,0 c -2.8,0 -5.2,-2.3 -5.2,-5.3 l 0,-106.1 c 0,-3 2.3,-5.3 5.2,-5.3 3.1,0 5.5,2.3 5.5,5.3 l 0,106.1 c 0,3 -2.3,5.3 -5.5,5.3 z" /><path
           style="fill:#8dc63f"
           inkscape:connector-curvature="0"
           id="path100"
           d="m 685.9,423.8 c -2.5,-1.3 -3.9,-4.2 -3,-6.9 l 42.7,-106.8 c 1.1,-2.8 4.2,-4.1 6.7,-3 1.6,0.5 2.5,1.7 3,3 l 42.6,106.8 c 1.1,2.7 -0.2,5.6 -2.8,6.9 -2.7,0.9 -5.8,-0.3 -6.9,-3 l -37.7,-95 -37.7,95 c -1.3,2.7 -4.3,3.9 -6.9,3 z m 22.5,0 c -2.7,-1.3 -3.9,-4.2 -2.8,-6.9 l 3.8,-9.5 c 0.9,-1.9 3,-3.3 4.9,-3.3 l 32.4,0 c 2.3,0 4.4,1.7 5,3.8 l 3.8,9.1 c 0.9,2.7 -0.2,5.6 -2.8,6.9 -2.7,0.9 -5.8,-0.2 -6.9,-3 l -2.5,-6.1 -25.4,0 -2.7,6.1 c -1,2.6 -4,3.8 -6.8,2.9 z m 9.3,-35.4 c 0,-3 2.3,-5.2 5.2,-5.2 l 7.5,0 -4.7,-11.6 c -0.9,-2.7 0.3,-5.8 2.8,-6.7 2.8,-1.1 5.8,0.2 6.9,2.7 l 7.7,18.8 c 0.3,0.6 0.5,1.3 0.5,2 0,3 -2.5,5.3 -5.5,5.3 l -15.2,0 c -2.9,0 -5.2,-2.3 -5.2,-5.3 z" /><path
           style="fill:#8dc63f"
           inkscape:connector-curvature="0"
           id="path102"
           d="m 799.2,425 c -2.8,0 -5.2,-2.3 -5.2,-5.2 l 0,-104.7 c 0,-2.8 2.3,-5.2 5.2,-5.2 3,0 5.3,2.3 5.3,5.2 l 0,104.7 c 0,2.9 -2.3,5.2 -5.3,5.2 z m 47.9,-114.1 c 2.5,1.7 3,4.9 1.4,7.2 l -24.1,34.4 c -1.6,2.3 -4.9,3 -7.2,1.3 -1.6,-1.1 -2.2,-2.7 -2.2,-4.5 l 0,-34.1 c 0,-2.8 2.3,-5.2 5.2,-5.2 3,0 5.2,2.3 5.2,5.2 l 0,17.8 14.6,-20.8 c 1.6,-2.4 4.8,-3 7.1,-1.3 z m 0,113.2 c -2.3,1.6 -5.5,1.1 -7.2,-1.3 l -14.6,-20.8 0,17.8 c 0,2.8 -2.2,5.2 -5.2,5.2 -2.8,0 -5.2,-2.3 -5.2,-5.2 l 0,-34.3 c 0,-5.3 6.6,-7.4 9.4,-3.1 l 24.1,34.3 c 1.7,2.5 1.2,5.7 -1.3,7.4 z m 25.5,-113.2 c 2.5,1.7 3,4.9 1.4,7.2 l -34.4,49.3 34.4,49.3 c 1.6,2.5 1.1,5.6 -1.4,7.4 -2.3,1.6 -5.5,1.1 -7.2,-1.3 L 829,370.6 c -1.3,-1.7 -1.3,-4.2 0,-6.1 l 36.5,-52.3 c 1.6,-2.4 4.8,-3 7.1,-1.3 z" /></g></g><line
       style="fill:none;stroke:#193634;stroke-width:9;stroke-linecap:round;stroke-miterlimit:10"
       id="line104"
       y2="290.70001"
       x2="904.40002"
       y1="290.70001"
       x1="105.6"
       stroke-miterlimit="10" /><g
       id="g106"><path
         style="fill:#165b7b;stroke:#0d3042;stroke-width:4;stroke-miterlimit:10"
         inkscape:connector-curvature="0"
         id="path108"
         d="m 432,93.9 c 0,-2.1 1.7,-3.8 3.8,-3.8 2.1,0 3.8,1.7 3.8,3.8 l 0,27.7 c 0,2.1 -1.7,3.8 -3.8,3.8 -2.1,0 -3.8,-1.7 -3.8,-3.8 l 0,-27.7 z"
         stroke-miterlimit="10" /><path
         style="fill:#165b7b;stroke:#0d3042;stroke-width:4;stroke-miterlimit:10"
         inkscape:connector-curvature="0"
         id="path110"
         d="m 449.1,94.2 c 0,-2.1 1.7,-3.8 3.8,-3.8 l 10.4,0 c 8.3,0 13.3,4.9 13.3,12 l 0,0.1 c 0,8 -6.2,12.2 -14,12.2 l -5.8,0 0,6.9 c 0,2.1 -1.7,3.8 -3.8,3.8 -2.1,0 -3.8,-1.7 -3.8,-3.8 l 0,-27.4 z m 13.7,13.7 c 3.8,0 6.1,-2.3 6.1,-5.3 l 0,-0.1 c 0,-3.4 -2.4,-5.3 -6.2,-5.3 l -5.9,0 0,10.6 6,0 z"
         stroke-miterlimit="10" /><path
         style="fill:#165b7b;stroke:#0d3042;stroke-width:4;stroke-miterlimit:10"
         inkscape:connector-curvature="0"
         id="path112"
         d="m 483,94.2 c 0,-2.1 1.7,-3.8 3.8,-3.8 l 10.4,0 c 8.3,0 13.3,4.9 13.3,12 l 0,0.1 c 0,8 -6.2,12.2 -14,12.2 l -5.8,0 0,6.9 c 0,2.1 -1.7,3.8 -3.8,3.8 -2.1,0 -3.8,-1.7 -3.8,-3.8 l 0,-27.4 z m 13.6,13.7 c 3.8,0 6.1,-2.3 6.1,-5.3 l 0,-0.1 c 0,-3.4 -2.4,-5.3 -6.2,-5.3 l -5.9,0 0,10.6 6,0 z"
         stroke-miterlimit="10" /><path
         style="fill:#165b7b;stroke:#0d3042;stroke-width:4;stroke-miterlimit:10"
         inkscape:connector-curvature="0"
         id="path114"
         d="m 516.7,121.3 0,-27.1 c 0,-2.1 1.7,-3.8 3.8,-3.8 l 19.2,0 c 1.9,0 3.4,1.5 3.4,3.4 0,1.9 -1.5,3.4 -3.4,3.4 l -15.5,0 0,7 13.2,0 c 1.9,0 3.4,1.5 3.4,3.4 0,1.9 -1.5,3.4 -3.4,3.4 l -13.2,0 0,7.3 15.8,0 c 1.9,0 3.4,1.5 3.4,3.4 0,1.9 -1.5,3.4 -3.4,3.4 l -19.5,0 c -2.2,0 -3.8,-1.7 -3.8,-3.8 z"
         stroke-miterlimit="10" /><path
         style="fill:#165b7b;stroke:#0d3042;stroke-width:4;stroke-miterlimit:10"
         inkscape:connector-curvature="0"
         id="path116"
         d="m 549.8,119 9.4,-11.5 -8.8,-10.8 c -0.6,-0.7 -1.1,-1.7 -1.1,-2.8 0,-2.1 1.6,-3.8 3.8,-3.8 1.6,0 2.6,0.6 3.5,1.9 l 7.6,10.1 7.5,-9.9 c 1,-1.3 2,-2.1 3.7,-2.1 1.7,0 3.5,1.3 3.5,3.5 0,1.1 -0.4,2 -1.1,2.9 l -8.8,10.8 9.3,11.5 c 0.6,0.7 1.1,1.7 1.1,2.8 0,2.1 -1.6,3.8 -3.8,3.8 -1.6,0 -2.6,-0.6 -3.5,-1.9 l -8.1,-10.7 -8,10.5 c -1,1.3 -2,2.1 -3.7,2.1 -1.7,0 -3.5,-1.3 -3.5,-3.5 -0.1,-1.1 0.3,-2 1,-2.9 z"
         stroke-miterlimit="10" /></g><g
       id="g134"><g
         id="g136"><path
           style="fill:#165b7b"
           inkscape:connector-curvature="0"
           id="path138"
           d="m 189.3,625.1 0.4,0 0,-1.8 2.2,-2.7 -0.5,0 -1.9,2.4 -1.9,-2.4 -0.5,0 2.2,2.7 0,1.8 z m -6.5,-2.2 0,-2 1.7,0 c 0.9,0 1.5,0.4 1.5,1 l 0,0 c 0,0.7 -0.6,1 -1.5,1 l -1.7,0 z m -0.4,2.2 0.4,0 0,-1.9 1.7,0 0,0 1.6,1.9 0.5,0 -1.7,-1.9 c 0.9,-0.1 1.5,-0.5 1.5,-1.3 l 0,0 c 0,-0.3 -0.1,-0.6 -0.4,-0.8 -0.3,-0.3 -0.8,-0.4 -1.4,-0.4 l -2.1,0 0,4.4 z m -3.9,-0.3 c -1.3,0 -2.2,-0.9 -2.2,-2 l 0,0 c 0,-1.1 0.9,-2 2.2,-2 1.3,0 2.2,0.9 2.2,2 l 0,0 c 0,1.1 -0.9,2 -2.2,2 m 0,0.4 c 1.5,0 2.6,-1.1 2.6,-2.3 0,0 0,0 0,0 0,-1.2 -1,-2.3 -2.6,-2.3 -1.5,0 -2.6,1.1 -2.6,2.3 l 0,0 c 0,1.2 1,2.3 2.6,2.3 m -5.3,-0.1 0.4,0 0,-4.2 1.8,0 0,-0.3 -3.9,0 0,0.3 1.8,0 0,4.2 z m -5.9,-1.6 1.3,-2.6 1.3,2.6 -2.6,0 z m -1.2,1.6 0.4,0 0.6,-1.3 3,0 0.6,1.3 0.4,0 -2.4,-4.6 -0.4,0 -2.2,4.6 z m -4.5,-2.2 0,-2 1.7,0 c 0.9,0 1.5,0.4 1.5,1 l 0,0 c 0,0.7 -0.6,1 -1.5,1 l -1.7,0 z m -0.4,2.2 0.4,0 0,-1.9 1.7,0 0,0 1.6,1.9 0.5,0 -1.7,-1.9 c 0.9,-0.1 1.5,-0.5 1.5,-1.3 l 0,0 c 0,-0.3 -0.1,-0.6 -0.4,-0.8 -0.3,-0.3 -0.8,-0.4 -1.4,-0.4 l -2.1,0 0,4.4 z m -3.9,-0.3 c -1.3,0 -2.2,-0.9 -2.2,-2 l 0,0 c 0,-1.1 0.9,-2 2.2,-2 1.3,0 2.2,0.9 2.2,2 l 0,0 c -0.1,1.1 -1,2 -2.2,2 m -0.1,0.4 c 1.5,0 2.6,-1.1 2.6,-2.3 0,0 0,0 0,0 0,-1.2 -1,-2.3 -2.6,-2.3 -1.5,0 -2.6,1.1 -2.6,2.3 l 0,0 c 0.1,1.2 1.1,2.3 2.6,2.3 m -7.3,-0.4 0,-1.8 1.7,0 c 1,0 1.6,0.3 1.6,0.9 l 0,0 c 0,0.6 -0.6,0.9 -1.4,0.9 l -1.9,0 z m 0,-2.2 0,-1.8 1.7,0 c 0.8,0 1.3,0.3 1.3,0.8 l 0,0 c 0,0.6 -0.5,0.9 -1.3,0.9 l -1.7,0 z m -0.3,2.5 2.2,0 c 1.1,0 1.8,-0.5 1.8,-1.2 l 0,0 c 0,-0.6 -0.5,-0.9 -1.2,-1.1 0.4,-0.1 0.9,-0.5 0.9,-1.1 l 0,0 c 0,-0.3 -0.1,-0.5 -0.3,-0.7 -0.3,-0.3 -0.8,-0.4 -1.3,-0.4 l -2.1,0 0,4.5 z m -5.1,-1.6 1.3,-2.6 1.3,2.6 -2.6,0 z m -1.2,1.6 0.4,0 0.6,-1.3 3,0 0.6,1.3 0.4,0 -2.4,-4.6 -0.4,0 -2.2,4.6 z m -4.2,0 3.4,0 0,-0.3 -3,0 0,-4.2 -0.4,0 0,4.5 z" /><path
           style="fill:#165b7b"
           inkscape:connector-curvature="0"
           id="path140"
           d="m 203.4,618 c 1,0 1.7,-0.5 1.7,-1.2 l 0,0 c 0,-0.7 -0.5,-1 -1.7,-1.3 -1.2,-0.2 -1.5,-0.5 -1.5,-1 l 0,0 c 0,-0.5 0.5,-0.9 1.2,-0.9 0.6,0 1,0.1 1.5,0.5 l 0.2,-0.3 c -0.5,-0.4 -1,-0.6 -1.8,-0.6 -0.9,0 -1.6,0.5 -1.6,1.2 l 0,0 c 0,0.7 0.5,1.1 1.7,1.3 1.2,0.2 1.4,0.5 1.4,1 l 0,0 c 0,0.5 -0.5,0.9 -1.3,0.9 -0.8,0 -1.3,-0.2 -1.8,-0.7 l -0.2,0.3 c 0.7,0.6 1.4,0.8 2.2,0.8 m -4.9,0 c 0.9,0 1.5,-0.3 2,-0.8 l -0.3,-0.2 c -0.5,0.5 -1,0.7 -1.8,0.7 -1.2,0 -2.2,-0.9 -2.2,-2 l 0,0 c 0,-1.1 0.9,-2 2.2,-2 0.8,0 1.3,0.3 1.7,0.7 l 0.3,-0.2 c -0.5,-0.4 -1.1,-0.7 -2,-0.7 -1.5,0 -2.6,1.1 -2.6,2.3 l 0,0 c 0.2,1.2 1.2,2.2 2.7,2.2 m -4.3,-0.1 0.4,0 0,-4.5 -0.4,0 0,4.5 z m -3.1,0.1 c 1,0 1.7,-0.5 1.7,-1.2 l 0,0 c 0,-0.7 -0.5,-1 -1.7,-1.3 -1.2,-0.2 -1.5,-0.5 -1.5,-1 l 0,0 c 0,-0.5 0.5,-0.9 1.2,-0.9 0.6,0 1,0.1 1.5,0.5 l 0.2,-0.3 c -0.5,-0.4 -1,-0.6 -1.8,-0.6 -0.9,0 -1.6,0.5 -1.6,1.2 l 0,0 c 0,0.7 0.5,1.1 1.7,1.3 1.2,0.2 1.4,0.5 1.4,1 l 0,0 c 0,0.5 -0.5,0.9 -1.3,0.9 -0.8,0 -1.3,-0.2 -1.8,-0.7 l -0.2,0.3 c 0.7,0.6 1.4,0.8 2.2,0.8 m -5.1,-0.1 0.4,0 0,-1.8 2.2,-2.7 -0.5,0 -1.9,2.4 -1.9,-2.4 -0.5,0 2.2,2.7 0,1.8 z m -7.3,0 0.4,0 0,-2.1 3.3,0 0,2.1 0.4,0 0,-4.5 -0.4,0 0,2.1 -3.4,0 0,-2.1 -0.4,0 0,4.5 z m -4.6,-2 0,-2.2 1.4,0 c 0.9,0 1.5,0.4 1.5,1.1 l 0,0 c 0,0.7 -0.6,1.1 -1.6,1.1 l -1.3,0 z m -0.4,2 0.4,0 0,-1.7 1.4,0 c 1.1,0 2,-0.5 2,-1.4 l 0,0 c 0,-0.9 -0.8,-1.4 -1.9,-1.4 l -1.9,0 0,4.5 z m -7.4,-1.5 1.3,-2.6 1.3,2.6 -2.6,0 z m -1.2,1.5 0.4,0 0.6,-1.3 3,0 0.6,1.3 0.4,0 -2.4,-4.6 -0.4,0 -2.2,4.6 z m -5.9,0 0.4,0 0,-3.9 2,2.6 0,0 2,-2.6 0,3.9 0.4,0 0,-4.5 -0.4,0 -2,2.7 -2,-2.7 -0.4,0 0,4.5 z m -3.1,0.1 c 1,0 1.7,-0.5 1.7,-1.2 l 0,0 c 0,-0.7 -0.5,-1 -1.7,-1.3 -1.2,-0.2 -1.5,-0.5 -1.5,-1 l 0,0 c 0,-0.5 0.5,-0.9 1.2,-0.9 0.6,0 1,0.1 1.5,0.5 l 0.2,-0.3 c -0.5,-0.4 -1,-0.6 -1.8,-0.6 -0.9,0 -1.6,0.5 -1.6,1.2 l 0,0 c 0,0.7 0.5,1.1 1.7,1.3 1.2,0.2 1.4,0.5 1.4,1 l 0,0 c 0,0.5 -0.5,0.9 -1.3,0.9 -0.8,0 -1.3,-0.2 -1.8,-0.7 l -0.2,0.3 c 0.8,0.6 1.4,0.8 2.2,0.8 m -6.7,-1.6 1.3,-2.6 1.3,2.6 -2.6,0 z m -1.2,1.5 0.4,0 0.6,-1.3 3,0 0.6,1.3 0.4,0 -2.4,-4.6 -0.4,0 -2.2,4.6 z m -4.1,0 3.4,0 0,-0.3 -3,0 0,-4.2 -0.4,0 0,4.5 z m -4.6,-2 0,-2.2 1.4,0 c 0.9,0 1.5,0.4 1.5,1.1 l 0,0 c 0,0.7 -0.6,1.1 -1.6,1.1 l -1.3,0 z m -0.4,2 0.4,0 0,-1.7 1.4,0 c 1.1,0 2,-0.5 2,-1.4 l 0,0 c 0,-0.9 -0.8,-1.4 -1.9,-1.4 l -1.9,0 0,4.5 z" /><path
           style="fill:#165b7b"
           inkscape:connector-curvature="0"
           id="path142"
           d="m 178.5,610.8 0.4,0 0,-4 3.6,4 0.3,0 0,-4.5 -0.4,0 0,3.9 -3.5,-3.9 -0.4,0 0,4.5 z m -3.9,-0.2 c -1.3,0 -2.2,-0.9 -2.2,-2 l 0,0 c 0,-1.1 0.9,-2 2.2,-2 1.3,0 2.2,0.9 2.2,2 l 0,0 c -0.1,1.1 -1,2 -2.2,2 m -0.1,0.3 c 1.5,0 2.6,-1.1 2.6,-2.3 0,0 0,0 0,0 0,-1.2 -1,-2.3 -2.6,-2.3 -1.5,0 -2.6,1.1 -2.6,2.3 l 0,0 c 0.1,1.2 1.1,2.3 2.6,2.3 m -5.3,-0.1 0.4,0 0,-4.2 1.8,0 0,-0.3 -3.9,0 0,0.3 1.8,0 0,4.2 z m -6.4,0 3.7,0 0,-0.3 -3.3,0 0,-1.8 2.9,0 0,-0.3 -2.9,0 0,-1.8 3.3,0 0,-0.3 -3.6,0 0,4.5 z m -3.1,0.1 c 0.9,0 1.5,-0.3 2,-0.8 l -0.3,-0.2 c -0.5,0.5 -1,0.7 -1.8,0.7 -1.2,0 -2.2,-0.9 -2.2,-2 l 0,0 c 0,-1.1 0.9,-2 2.2,-2 0.8,0 1.3,0.3 1.7,0.7 l 0.3,-0.2 c -0.5,-0.4 -1.1,-0.7 -2,-0.7 -1.5,0 -2.6,1.1 -2.6,2.3 l 0,0 c 0.1,1.2 1.2,2.2 2.7,2.2 m -8.2,-0.1 0.4,0 0,-4 3.6,4 0.3,0 0,-4.5 -0.4,0 0,3.9 -3.5,-3.9 -0.4,0 0,4.5 z m -2,0 0.4,0 0,-4.5 -0.4,0 0,4.5 z m -5.1,-2.2 0,-2 1.7,0 c 0.9,0 1.5,0.4 1.5,1 l 0,0 c 0,0.7 -0.6,1 -1.5,1 l -1.7,0 z m -0.3,2.2 0.4,0 0,-1.9 1.7,0 0,0 1.6,1.9 0.5,0 -1.7,-1.9 c 0.9,-0.1 1.5,-0.5 1.5,-1.3 l 0,0 c 0,-0.3 -0.1,-0.6 -0.4,-0.8 -0.3,-0.3 -0.8,-0.4 -1.4,-0.4 l -2.1,0 0,4.4 z m -4.6,-2 0,-2.2 1.4,0 c 0.9,0 1.5,0.4 1.5,1.1 l 0,0 c 0,0.7 -0.6,1.1 -1.6,1.1 l -1.3,0 z m -0.4,2 0.4,0 0,-1.7 1.4,0 c 1.1,0 2,-0.5 2,-1.4 l 0,0 c 0,-0.9 -0.8,-1.4 -1.9,-1.4 l -1.9,0 0,4.5 z" /></g><g
         id="g144"><path
           style="fill:#165b7b"
           inkscape:connector-curvature="0"
           id="path146"
           d="m 47.4,595 c -10.2,0 -18.5,7.9 -18.5,17.6 0,0.2 0,0.3 0,0.5 0,0.1 0,0.2 0,0.4 0,0 0,0.1 0,0.1 0,0 0,0.1 0,0.1 0,0.1 0,0.3 0,0.4 0.2,-3.5 3.2,-6.2 6.9,-6.2 1.5,0 2.9,0.5 4,1.2 -0.6,-0.2 -1.3,-0.3 -2,-0.3 -3.4,0 -6.2,2.7 -6.2,5.9 0,3.2 2.8,5.9 6.2,5.9 2,0 3.7,-0.9 4.9,-2.2 1.1,-1.3 1.8,-2.9 1.8,-4.7 0,-4.1 -3.5,-7.4 -7.8,-7.4 -2.1,0 -3.9,0.8 -5.3,2 1.9,-2 4.6,-3.3 7.7,-3.3 5.6,0 10.1,4.3 10.1,9.7 0,5.1 -4.2,9.3 -9.5,9.6 0.2,0 0.3,0 0.5,0 6.2,0 11.3,-4.8 11.3,-10.8 0,-5.9 -5.1,-10.8 -11.3,-10.8 -3.5,0 -6.6,1.5 -8.7,3.9 2.7,-3.9 7.3,-6.4 12.6,-6.4 8.4,0 15.2,6.5 15.2,14.5 0,8 -6.8,14.5 -15.2,14.5 -1.9,0 -3.6,-0.3 -5.3,-0.9 2.6,1.3 5.5,2 8.6,2 10.2,0 18.5,-7.9 18.5,-17.6 0,-9.8 -8.3,-17.7 -18.5,-17.7 z" /><path
           style="fill:#165b7b"
           inkscape:connector-curvature="0"
           id="path148"
           d="m 129.9,622.3 c -1.8,0 -3,-0.2 -3.9,-1.3 -0.7,-0.7 -0.7,-1.9 -0.7,-3.5 l 0,-0.7 0,-10.5 -4.2,0 0,3.8 c -0.4,-1.2 -1.2,-2.2 -2.4,-2.8 -1.2,-0.7 -3.2,-1 -5.9,-1 l -9.2,0 0,4.5 c -0.4,-1.5 -1.2,-2.7 -2.6,-3.5 -1.2,-0.7 -3.2,-1 -5.9,-1 l -9.2,0 0,4.5 c -0.4,-1.5 -1.2,-2.7 -2.6,-3.5 -1.2,-0.7 -3.2,-1 -5.9,-1 l -9.2,0 0,19.2 4.2,0 0,-6.7 5.1,0 c 2.5,0 4.5,-0.1 6.2,-1.2 1.1,-0.8 1.8,-1.8 2.1,-3.1 l 0,11.1 4.2,0 0,-6.7 5.1,0 c 2.5,0 4.5,-0.1 6.2,-1.2 1.1,-0.8 1.8,-1.8 2.1,-3.1 l 0,11.1 4.2,0 0,-6.7 5.1,0 c 2.5,0 4.5,-0.1 6.2,-1.2 0.9,-0.6 1.5,-1.4 1.9,-2.4 l 0,2.6 c 0,2.5 0.3,4.2 1.8,5.8 1.8,1.8 3.7,2 6.6,2 l 5.3,0 0,-3.2 -4.6,0 z m -52.2,-7 -5.2,0 0,-5.7 4.9,0 c 2.8,0 4,0.7 4,2.8 0,2 -1.2,2.9 -3.7,2.9 z m 17.6,0 -5.2,0 0,-5.7 4.9,0 c 2.8,0 4,0.7 4,2.8 0.1,2 -1.1,2.9 -3.7,2.9 z m 17.7,0 -5.2,0 0,-5.7 4.9,0 c 2.8,0 4,0.7 4,2.8 0.1,2 -1.2,2.9 -3.7,2.9 z" /></g></g></g><g
     inkscape:groupmode="layer"
     id="layer2"
     inkscape:label="StartButtonOff"
     style="display:inline"><g
       style="display:inline"
       id="g118"
       inkscape:export-filename="/Users/adomingu/Google Drive/Github/ippex/tokamak/img/startButOff.png"
       inkscape:export-xdpi="90"
       inkscape:export-ydpi="90"><rect
         style="fill:#322850;stroke:#ffffff;stroke-miterlimit:10"
         id="rect120"
         height="47.200001"
         width="268.20001"
         stroke-miterlimit="10"
         y="463.29999"
         x="364.60001" /><g
         id="g122"><path
           style="fill:#ffffff"
           inkscape:connector-curvature="0"
           id="path124"
           d="m 458.8,490.2 c 0.1,0.9 0.3,1.6 0.6,2.2 0.3,0.6 0.7,1.1 1.2,1.5 0.5,0.4 1.1,0.6 1.7,0.8 0.6,0.2 1.3,0.3 2.1,0.3 0.9,0 1.6,-0.1 2.2,-0.3 0.6,-0.2 1.1,-0.5 1.5,-0.9 0.4,-0.4 0.7,-0.8 0.9,-1.3 0.2,-0.5 0.3,-1 0.3,-1.5 0,-0.8 -0.2,-1.4 -0.5,-1.8 -0.3,-0.5 -0.8,-0.8 -1.3,-1.1 -0.5,-0.3 -1.2,-0.5 -1.9,-0.7 -0.7,-0.2 -1.4,-0.4 -2.2,-0.5 -0.7,-0.2 -1.5,-0.4 -2.2,-0.6 -0.7,-0.2 -1.3,-0.5 -1.9,-0.9 -0.5,-0.4 -1,-0.9 -1.3,-1.5 -0.3,-0.6 -0.5,-1.4 -0.5,-2.4 0,-0.7 0.1,-1.3 0.4,-1.9 0.3,-0.6 0.7,-1.2 1.2,-1.7 0.5,-0.5 1.2,-0.9 2.1,-1.2 0.8,-0.3 1.8,-0.4 2.8,-0.4 1.1,0 2,0.2 2.9,0.5 0.9,0.3 1.5,0.7 2,1.2 0.5,0.5 0.9,1.1 1.2,1.8 0.3,0.7 0.4,1.4 0.4,2.2 l -1.7,0 c 0,-0.7 -0.1,-1.4 -0.4,-1.9 -0.3,-0.5 -0.6,-1 -1.1,-1.3 -0.5,-0.3 -1,-0.6 -1.5,-0.8 -0.6,-0.2 -1.2,-0.2 -1.8,-0.2 -0.9,0 -1.7,0.1 -2.4,0.4 -0.6,0.3 -1.1,0.6 -1.5,1 -0.4,0.4 -0.6,0.9 -0.8,1.4 -0.2,0.5 -0.2,1 -0.1,1.5 0.1,0.6 0.4,1.1 0.8,1.5 0.4,0.4 0.9,0.7 1.5,0.9 0.6,0.2 1.2,0.4 1.9,0.6 0.7,0.2 1.4,0.3 2.1,0.5 0.7,0.2 1.4,0.4 2.1,0.6 0.7,0.2 1.3,0.5 1.8,0.9 0.5,0.4 0.9,0.9 1.2,1.5 0.3,0.6 0.5,1.4 0.5,2.3 0,1.8 -0.6,3.2 -1.9,4.2 -1.2,1 -3,1.5 -5.2,1.5 -1,0 -1.9,-0.1 -2.8,-0.4 -0.9,-0.3 -1.6,-0.7 -2.2,-1.2 -0.6,-0.5 -1.1,-1.2 -1.5,-2 -0.3,-0.8 -0.5,-1.7 -0.5,-2.8 l 1.8,0 z" /><path
           style="fill:#ffffff"
           inkscape:connector-curvature="0"
           id="path126"
           d="m 473.4,476.6 14.1,0 0,1.6 -6.1,0 0,17.8 -1.8,0 0,-17.8 -6.1,0 0,-1.6 z" /><path
           style="fill:#ffffff"
           inkscape:connector-curvature="0"
           id="path128"
           d="m 489,495.9 7.6,-19.4 2.1,0 7.4,19.4 -1.9,0 -2.2,-6.1 -8.8,0 -2.3,6.1 -1.9,0 z m 4.8,-7.6 7.6,0 -3.8,-10.2 -3.8,10.2 z" /><path
           style="fill:#ffffff"
           inkscape:connector-curvature="0"
           id="path130"
           d="m 511.2,487.2 0,8.8 -1.8,0 0,-19.3 7.6,0 c 2.1,0 3.8,0.4 4.9,1.2 1.1,0.8 1.7,2.1 1.7,3.9 0,1.2 -0.2,2.2 -0.7,2.9 -0.5,0.7 -1.3,1.3 -2.4,1.8 0.6,0.2 1,0.5 1.3,0.9 0.3,0.4 0.6,0.8 0.7,1.3 0.2,0.5 0.3,1 0.3,1.5 0,0.5 0.1,1.1 0.1,1.6 0,0.7 0,1.3 0.1,1.8 0,0.5 0.1,0.9 0.2,1.2 0.1,0.3 0.1,0.5 0.2,0.7 0.1,0.2 0.2,0.3 0.3,0.4 l 0,0.2 -2,0 c -0.2,-0.3 -0.3,-0.8 -0.4,-1.3 -0.1,-0.6 -0.1,-1.2 -0.2,-1.8 0,-0.6 -0.1,-1.2 -0.1,-1.8 0,-0.6 -0.1,-1.1 -0.1,-1.5 -0.1,-0.5 -0.3,-0.9 -0.5,-1.3 -0.2,-0.3 -0.5,-0.6 -0.9,-0.7 -0.4,-0.1 -0.7,-0.3 -1.1,-0.3 -0.4,-0.1 -0.9,-0.1 -1.3,-0.1 l -5.9,0 z m 5.7,-1.6 c 0.7,0 1.3,-0.1 1.9,-0.2 0.6,-0.1 1.1,-0.4 1.5,-0.7 0.4,-0.3 0.8,-0.7 1,-1.2 0.2,-0.5 0.4,-1.1 0.4,-1.7 0,-0.7 -0.1,-1.3 -0.4,-1.8 -0.3,-0.5 -0.6,-0.8 -1,-1.1 -0.4,-0.3 -0.9,-0.5 -1.5,-0.6 -0.6,-0.1 -1.2,-0.2 -1.8,-0.2 l -5.8,0 0,7.4 5.7,0 z" /><path
           style="fill:#ffffff"
           inkscape:connector-curvature="0"
           id="path132"
           d="m 526.2,476.6 14.1,0 0,1.6 -6.1,0 0,17.8 -1.8,0 0,-17.8 -6.1,0 0,-1.6 z" /></g></g></g></svg>