<?xml version="1.0" encoding="utf-8"?>
<!-- Generator: Adobe Illustrator 18.1.1, SVG Export Plug-In . SVG Version: 6.00 Build 0)  -->
<svg version="1.1" xmlns="http://www.w3.org/2000/svg" xmlns:xlink="http://www.w3.org/1999/xlink" x="0px" y="0px"
	 viewBox="0 0 1010 660" enable-background="new 0 0 1010 660" xml:space="preserve">
<g id="Layer_1">
	<rect x="0" y="0" fill="#231F20" width="1010" height="660"/>
</g>
<g id="Layer_2">
	
		<line fill="none" stroke="#5A326E" stroke-width="2" stroke-linecap="round" stroke-miterlimit="10" x1="-14.4" y1="481.9" x2="1025.1" y2="481.9"/>
	
		<line fill="none" stroke="#5A326E" stroke-width="2" stroke-linecap="round" stroke-miterlimit="10" x1="-14.4" y1="491.9" x2="1025.1" y2="491.9"/>
	<g>
		<g>
			<path fill="#193634" d="M283.2,156.3c2.7,1.3,3.9,4.1,2.8,6.9l-44.6,109.4c-1.9,4.4-7.8,4.4-9.7,0l-44.6-109.4
				c-0.9-2.8,0.2-5.6,3-6.9c2.7-0.9,5.6,0.3,6.7,3l39.9,97.7l39.8-97.7C277.6,156.6,280.7,155.4,283.2,156.3z M213.5,156.3
				c2.8-0.9,5.8,0.3,6.9,3l16.3,39.6l16.1-39.6c0.9-2.7,4.1-3.9,6.7-3c2.7,1.3,3.9,4.1,3,6.9l-21.1,51.5c-1.7,4.2-7.8,4.2-9.7,0
				l-20.8-51.5C209.6,160.4,211,157.5,213.5,156.3z"/>
			<path fill="#193634" d="M305.4,271c-3,0-5.3-2.3-5.3-5.2V161.1c0-2.8,2.3-5.2,5.3-5.2c2.8,0,5.2,2.3,5.2,5.2v104.7
				C310.6,268.7,308.2,271,305.4,271z M326.4,271c-3,0-5.3-2.3-5.3-5.2V161.1c0-2.8,2.3-5.2,5.3-5.2c2.8,0,5.2,2.3,5.2,5.2v104.7
				C331.6,268.7,329.2,271,326.4,271z"/>
			<path fill="#193634" d="M356.8,265.9V161.1c0-2.8,2.5-5.2,5.3-5.2h41.2c32.1,0,48.2,39.3,25.7,62.5c-4.5,4.5-10.2,8-16.4,9.5
				l24.3,34.8c3.9,5.6-4.7,11.7-8.5,6.1l-29-41.5c-3.1-4.1,0-8.6,3.9-8.6c23,0,34.3-28.5,18.2-44.8c-4.7-4.7-11.1-7.5-18.2-7.5h-36
				v99.4C367.3,272.8,356.8,272.8,356.8,265.9z M396.4,208.3c-8.1-0.5-8.5-10.3,0-10.3c4.9,0,10.6,0.8,10.6-5.3
				c0-3.1-2.5-5.3-5.5-5.3h-18.6c-6.9,0-6.9-10.5,0-10.5h18.6c9.5,0,15.8,8,15.8,16c0,8.8-7.2,15.5-15.8,15.5
				C400.1,208.3,398.1,208.4,396.4,208.3z M402.6,268.8L388.2,248v17.8c0,6.9-10.5,6.9-10.5,0v-34.1c0-5.6,6.6-7.2,9.5-3.3l24,34.3
				C415.2,268.4,406.7,274.5,402.6,268.8z"/>
			<path fill="#193634" d="M445.1,161.3c0-3,2.3-5.2,5.3-5.2h73.1c2.8,0,5,2.2,5,5.2c0,2.8-2.2,5.2-5,5.2h-73.1
				C447.4,166.5,445.1,164.1,445.1,161.3z M445.1,182.3c0-3,2.3-5.3,5.3-5.3h26c3,0,5.3,2.3,5.3,5.3v83.4c0,3-2.3,5.3-5.3,5.3
				c-2.8,0-5.3-2.3-5.3-5.3v-78.4h-20.7C447.4,187.3,445.1,185.1,445.1,182.3z M528.5,182.3c0,2.8-2.2,5-5,5h-21v78.4
				c0,3-2.3,5.3-5.3,5.3c-2.8,0-5.2-2.3-5.2-5.3v-83.4c0-3,2.3-5.3,5.2-5.3h26.3C526.3,177,528.5,179.3,528.5,182.3z"/>
			<path fill="#193634" d="M544.8,229.2V161c0-3,2.3-5.3,5.2-5.3c3,0,5.3,2.3,5.3,5.3v68.2c0,43.8,67.2,43.8,67.2,0V161
				c0-3,2.2-5.3,5.2-5.3c2.8,0,5.2,2.3,5.2,5.3v68.2C632.7,286.7,544.8,286.5,544.8,229.2z M566.2,161c0-3,2.3-5.3,5.2-5.3
				c3,0,5.3,2.3,5.3,5.3v67c0,16.6,24.3,16.6,24.3,0v-67c0-3,2.2-5.3,5.3-5.3c2.8,0,5.2,2.3,5.2,5.3v67c0,30.5-45.2,30.5-45.2,0V161
				z"/>
			<path fill="#193634" d="M650.7,269.8c-2.5-1.3-3.9-4.2-3-6.9l42.7-106.8c1.1-2.8,4.2-4.1,6.7-3c1.6,0.5,2.5,1.7,3,3l42.6,106.8
				c1.1,2.7-0.2,5.6-2.8,6.9c-2.7,0.9-5.8-0.3-6.9-3l-37.7-95l-37.7,95C656.4,269.5,653.4,270.7,650.7,269.8z M673.3,269.8
				c-2.7-1.3-3.9-4.2-2.8-6.9l3.8-9.5c0.9-1.9,3-3.3,4.9-3.3h32.4c2.3,0,4.4,1.7,5,3.8l3.8,9.1c0.9,2.7-0.2,5.6-2.8,6.9
				c-2.7,0.9-5.8-0.2-6.9-3l-2.5-6.1h-25.4l-2.7,6.1C679.1,269.5,676.1,270.7,673.3,269.8z M682.5,234.4c0-3,2.3-5.2,5.2-5.2h7.5
				l-4.7-11.6c-0.9-2.7,0.3-5.8,2.8-6.7c2.8-1.1,5.8,0.2,6.9,2.7l7.7,18.8c0.3,0.6,0.5,1.3,0.5,2c0,3-2.5,5.3-5.5,5.3h-15.2
				C684.9,239.7,682.5,237.4,682.5,234.4z"/>
			<path fill="#193634" d="M830.3,265.9c0,2.8-2.2,5.2-5.2,5.2h-60.9c-3,0-5.3-2.3-5.3-5.2V161.1c0-2.8,2.3-5.2,5.3-5.2
				c2.8,0,5.2,2.3,5.2,5.2v99.4h55.7C828.1,260.6,830.3,262.9,830.3,265.9z M785.1,156c3,0,5.3,2.3,5.3,5.2v78.4h34.8
				c3,0,5.2,2.3,5.2,5.3c0,2.8-2.2,5.2-5.2,5.2h-40.1c-2.8,0-5.2-2.3-5.2-5.2v-83.7C779.9,158.3,782.2,156,785.1,156z"/>
			<path fill="#193634" d="M136,315.3c0-3,2.3-5.2,5.3-5.2h73.1c2.8,0,5,2.2,5,5.2c0,2.8-2.2,5.2-5,5.2h-73.1
				C138.3,320.5,136,318.1,136,315.3z M136,336.3c0-3,2.3-5.3,5.3-5.3h26c3,0,5.3,2.3,5.3,5.3v83.4c0,3-2.3,5.3-5.3,5.3
				c-2.8,0-5.3-2.3-5.3-5.3v-78.4h-20.7C138.3,341.3,136,339.1,136,336.3z M219.4,336.3c0,2.8-2.2,5-5,5h-21v78.4
				c0,3-2.3,5.3-5.3,5.3c-2.8,0-5.2-2.3-5.2-5.3v-83.4c0-3,2.3-5.3,5.2-5.3h26.3C217.2,331,219.4,333.3,219.4,336.3z"/>
			<path fill="#193634" d="M342.8,356c-2.8,0.9-5.9-0.6-6.7-3.4c-3.3-10-9.5-18.6-18.2-24.9c-8.1-5.8-18.3-9.4-29.4-9.4
				c-65.3,0-65.3,98,0,98c11.1,0,21.3-3.4,29.4-9.4c8.6-6.1,14.9-14.7,18.2-24.9c0.8-2.8,3.9-4.2,6.7-3.4c2.8,0.8,4.2,3.9,3.4,6.7
				c-3.9,12.2-11.7,22.9-21.9,30.2c-10.2,7.2-22.4,11.6-35.8,11.6c-79.4,0-79.4-119.4,0-119.4c13.5,0,25.7,4.2,35.8,11.4
				c10.2,7.5,18,18,21.9,30.4C347,352.2,345.6,355.2,342.8,356z M258.1,379c2.7-1.4,5.8-0.6,7.2,2c2.5,4.1,5.9,7.7,10,9.9
				c3.8,2.3,8.3,3.8,13.1,3.8c7.5,0,14.2-3,18.9-8c5-4.9,8-11.7,8-19.4c0-7.5-3-14.4-8-19.3c-4.7-4.9-11.4-8-18.9-8
				c-4.9,0-9.2,1.3-13.1,3.6c-4.1,2.3-7.5,5.8-10,9.9c-1.4,2.7-4.5,3.6-7.2,2.2c-2.5-1.4-3.4-4.7-1.9-7.4c3.3-5.8,8-10.6,13.6-13.9
				s12.1-5,18.6-5c10.5,0,19.9,4.2,26.8,11.1c6.6,6.9,10.8,16.3,10.8,26.8s-4.2,19.9-10.8,26.8c-6.9,7-16.3,11.3-26.8,11.3
				c-6.6,0-13-1.9-18.6-5c-5.6-3.4-10.3-8.3-13.6-14.1C254.6,383.6,255.6,380.6,258.1,379z"/>
			<path fill="#193634" d="M372.7,425c-2.8,0-5.2-2.3-5.2-5.2V315.1c0-2.8,2.3-5.2,5.2-5.2c3,0,5.3,2.3,5.3,5.2v104.7
				C378,422.7,375.6,425,372.7,425z M420.6,310.9c2.5,1.7,3,4.9,1.4,7.2l-24.1,34.4c-1.6,2.3-4.9,3-7.2,1.3
				c-1.6-1.1-2.2-2.7-2.2-4.5v-34.1c0-2.8,2.3-5.2,5.2-5.2c3,0,5.2,2.3,5.2,5.2V333l14.6-20.8C415.1,309.8,418.2,309.2,420.6,310.9z
				 M420.6,424.1c-2.3,1.6-5.5,1.1-7.2-1.3L398.8,402v17.8c0,2.8-2.2,5.2-5.2,5.2c-2.8,0-5.2-2.3-5.2-5.2v-34.3
				c0-5.3,6.6-7.4,9.4-3.1l24.1,34.3C423.5,419.2,423.1,422.4,420.6,424.1z M446.1,310.9c2.5,1.7,3,4.9,1.4,7.2L413,367.4l34.4,49.3
				c1.6,2.5,1.1,5.6-1.4,7.4c-2.3,1.6-5.5,1.1-7.2-1.3l-36.5-52.3c-1.3-1.7-1.3-4.2,0-6.1l36.5-52.3
				C440.6,309.8,443.7,309.2,446.1,310.9z"/>
			<path fill="#193634" d="M456.4,423.8c-2.5-1.3-3.9-4.2-3-6.9l42.7-106.8c1.1-2.8,4.2-4.1,6.7-3c1.6,0.5,2.5,1.7,3,3l42.6,106.8
				c1.1,2.7-0.2,5.6-2.8,6.9c-2.7,0.9-5.8-0.3-6.9-3l-37.7-95l-37.7,95C462,423.5,459.1,424.7,456.4,423.8z M478.9,423.8
				c-2.7-1.3-3.9-4.2-2.8-6.9l3.8-9.5c0.9-1.9,3-3.3,4.9-3.3h32.4c2.3,0,4.4,1.7,5,3.8l3.8,9.1c0.9,2.7-0.2,5.6-2.8,6.9
				c-2.7,0.9-5.8-0.2-6.9-3l-2.5-6.1h-25.4l-2.7,6.1C484.7,423.5,481.8,424.7,478.9,423.8z M488.2,388.4c0-3,2.3-5.2,5.2-5.2h7.5
				l-4.7-11.6c-0.9-2.7,0.3-5.8,2.8-6.7c2.8-1.1,5.8,0.2,6.9,2.7l7.7,18.8c0.3,0.6,0.5,1.3,0.5,2c0,3-2.5,5.3-5.5,5.3h-15.2
				C490.5,393.7,488.2,391.4,488.2,388.4z"/>
			<path fill="#193634" d="M569.9,425c-3,0-5.3-2.3-5.3-5.3V313.6c0-3,2.3-5.3,5.3-5.3c3,0,5.3,2.3,5.3,5.3v106.1
				C575.2,422.7,572.9,425,569.9,425z M658.7,309.2c2.3,1.7,2.8,5,1.3,7.4l-33.2,47.6c-1.7,2.5-5.2,3.1-7.5,1.3
				c-0.5-0.3-0.9-0.8-1.3-1.4l-33.2-47.4c-1.6-2.3-1.1-5.6,1.3-7.4c2.3-1.7,5.8-1.1,7.5,1.3l28.6,41.5l29-41.5
				C652.9,308.1,656.1,307.5,658.7,309.2z M653.5,425c-3,0-5.3-2.3-5.3-5.3v-49.3l-21.4,30.8c-1.7,2.3-5.2,3-7.5,1.4
				c-0.5-0.5-0.9-0.9-1.3-1.4l-21.4-30.8v49.3c0,3-2.3,5.3-5.5,5.3c-2.8,0-5.2-2.3-5.2-5.3v-66.2c0-1.6,0.8-3.3,2.2-4.2
				c2.3-1.7,5.8-1.1,7.5,1.3l26.6,38.5l26.9-38.4c0.9-1.4,2.5-2.3,4.4-2.3c3,0,5.3,2.3,5.3,5.2v66.2
				C658.8,422.7,656.5,425,653.5,425z M674.6,425c-2.8,0-5.2-2.3-5.2-5.3V313.6c0-3,2.3-5.3,5.2-5.3c3.1,0,5.5,2.3,5.5,5.3v106.1
				C680.1,422.7,677.8,425,674.6,425z"/>
			<path fill="#193634" d="M698.6,423.8c-2.5-1.3-3.9-4.2-3-6.9l42.7-106.8c1.1-2.8,4.2-4.1,6.7-3c1.6,0.5,2.5,1.7,3,3l42.6,106.8
				c1.1,2.7-0.2,5.6-2.8,6.9c-2.7,0.9-5.8-0.3-6.9-3l-37.7-95l-37.7,95C704.2,423.5,701.2,424.7,698.6,423.8z M721.1,423.8
				c-2.7-1.3-3.9-4.2-2.8-6.9l3.8-9.5c0.9-1.9,3-3.3,4.9-3.3h32.4c2.3,0,4.4,1.7,5,3.8l3.8,9.1c0.9,2.7-0.2,5.6-2.8,6.9
				c-2.7,0.9-5.8-0.2-6.9-3l-2.5-6.1h-25.4l-2.7,6.1C726.9,423.5,723.9,424.7,721.1,423.8z M730.3,388.4c0-3,2.3-5.2,5.2-5.2h7.5
				l-4.7-11.6c-0.9-2.7,0.3-5.8,2.8-6.7c2.8-1.1,5.8,0.2,6.9,2.7l7.7,18.8c0.3,0.6,0.5,1.3,0.5,2c0,3-2.5,5.3-5.5,5.3h-15.2
				C732.7,393.7,730.3,391.4,730.3,388.4z"/>
			<path fill="#193634" d="M811.9,425c-2.8,0-5.2-2.3-5.2-5.2V315.1c0-2.8,2.3-5.2,5.2-5.2c3,0,5.3,2.3,5.3,5.2v104.7
				C817.2,422.7,814.9,425,811.9,425z M859.8,310.9c2.5,1.7,3,4.9,1.4,7.2l-24.1,34.4c-1.6,2.3-4.9,3-7.2,1.3
				c-1.6-1.1-2.2-2.7-2.2-4.5v-34.1c0-2.8,2.3-5.2,5.2-5.2c3,0,5.2,2.3,5.2,5.2V333l14.6-20.8C854.3,309.8,857.5,309.2,859.8,310.9z
				 M859.8,424.1c-2.3,1.6-5.5,1.1-7.2-1.3L838,402v17.8c0,2.8-2.2,5.2-5.2,5.2c-2.8,0-5.2-2.3-5.2-5.2v-34.3c0-5.3,6.6-7.4,9.4-3.1
				l24.1,34.3C862.8,419.2,862.3,422.4,859.8,424.1z M885.3,310.9c2.5,1.7,3,4.9,1.4,7.2l-34.4,49.3l34.4,49.3
				c1.6,2.5,1.1,5.6-1.4,7.4c-2.3,1.6-5.5,1.1-7.2-1.3l-36.5-52.3c-1.3-1.7-1.3-4.2,0-6.1l36.5-52.3
				C879.8,309.8,883,309.2,885.3,310.9z"/>
		</g>
		<g>
			<path fill="#558139" d="M276.5,156.3c2.7,1.3,3.9,4.1,2.8,6.9l-44.6,109.4c-1.9,4.4-7.8,4.4-9.7,0l-44.6-109.4
				c-0.9-2.8,0.2-5.6,3-6.9c2.7-0.9,5.6,0.3,6.7,3L230,257l39.8-97.7C270.9,156.6,274,155.4,276.5,156.3z M206.8,156.3
				c2.8-0.9,5.8,0.3,6.9,3l16.3,39.6l16.1-39.6c0.9-2.7,4.1-3.9,6.7-3c2.7,1.3,3.9,4.1,3,6.9l-21.1,51.5c-1.7,4.2-7.8,4.2-9.7,0
				l-20.8-51.5C202.9,160.4,204.3,157.5,206.8,156.3z"/>
			<path fill="#558139" d="M298.7,271c-3,0-5.3-2.3-5.3-5.2V161.1c0-2.8,2.3-5.2,5.3-5.2c2.8,0,5.2,2.3,5.2,5.2v104.7
				C303.9,268.7,301.5,271,298.7,271z M319.7,271c-3,0-5.3-2.3-5.3-5.2V161.1c0-2.8,2.3-5.2,5.3-5.2c2.8,0,5.2,2.3,5.2,5.2v104.7
				C324.9,268.7,322.5,271,319.7,271z"/>
			<path fill="#558139" d="M350.1,265.9V161.1c0-2.8,2.5-5.2,5.3-5.2h41.2c32.1,0,48.2,39.3,25.7,62.5c-4.5,4.5-10.2,8-16.4,9.5
				l24.3,34.8c3.9,5.6-4.7,11.7-8.5,6.1l-29-41.5c-3.1-4.1,0-8.6,3.9-8.6c23,0,34.3-28.5,18.2-44.8c-4.7-4.7-11.1-7.5-18.2-7.5h-36
				v99.4C360.6,272.8,350.1,272.8,350.1,265.9z M389.7,208.3c-8.1-0.5-8.5-10.3,0-10.3c4.9,0,10.6,0.8,10.6-5.3
				c0-3.1-2.5-5.3-5.5-5.3h-18.6c-6.9,0-6.9-10.5,0-10.5h18.6c9.5,0,15.8,8,15.8,16c0,8.8-7.2,15.5-15.8,15.5
				C393.4,208.3,391.4,208.4,389.7,208.3z M395.9,268.8L381.5,248v17.8c0,6.9-10.5,6.9-10.5,0v-34.1c0-5.6,6.6-7.2,9.5-3.3l24,34.3
				C408.5,268.4,400,274.5,395.9,268.8z"/>
			<path fill="#558139" d="M438.4,161.3c0-3,2.3-5.2,5.3-5.2h73.1c2.8,0,5,2.2,5,5.2c0,2.8-2.2,5.2-5,5.2h-73.1
				C440.7,166.5,438.4,164.1,438.4,161.3z M438.4,182.3c0-3,2.3-5.3,5.3-5.3h26c3,0,5.3,2.3,5.3,5.3v83.4c0,3-2.3,5.3-5.3,5.3
				c-2.8,0-5.3-2.3-5.3-5.3v-78.4h-20.7C440.7,187.3,438.4,185.1,438.4,182.3z M521.8,182.3c0,2.8-2.2,5-5,5h-21v78.4
				c0,3-2.3,5.3-5.3,5.3c-2.8,0-5.2-2.3-5.2-5.3v-83.4c0-3,2.3-5.3,5.2-5.3h26.3C519.6,177,521.8,179.3,521.8,182.3z"/>
			<path fill="#558139" d="M538.1,229.2V161c0-3,2.3-5.3,5.2-5.3c3,0,5.3,2.3,5.3,5.3v68.2c0,43.8,67.2,43.8,67.2,0V161
				c0-3,2.2-5.3,5.2-5.3c2.8,0,5.2,2.3,5.2,5.3v68.2C626.1,286.7,538.1,286.5,538.1,229.2z M559.5,161c0-3,2.3-5.3,5.2-5.3
				c3,0,5.3,2.3,5.3,5.3v67c0,16.6,24.3,16.6,24.3,0v-67c0-3,2.2-5.3,5.3-5.3c2.8,0,5.2,2.3,5.2,5.3v67c0,30.5-45.2,30.5-45.2,0V161
				z"/>
			<path fill="#558139" d="M644.1,269.8c-2.5-1.3-3.9-4.2-3-6.9l42.7-106.8c1.1-2.8,4.2-4.1,6.7-3c1.6,0.5,2.5,1.7,3,3l42.6,106.8
				c1.1,2.7-0.2,5.6-2.8,6.9c-2.7,0.9-5.8-0.3-6.9-3l-37.7-95l-37.7,95C649.7,269.5,646.7,270.7,644.1,269.8z M666.6,269.8
				c-2.7-1.3-3.9-4.2-2.8-6.9l3.8-9.5c0.9-1.9,3-3.3,4.9-3.3h32.4c2.3,0,4.4,1.7,5,3.8l3.8,9.1c0.9,2.7-0.2,5.6-2.8,6.9
				c-2.7,0.9-5.8-0.2-6.9-3l-2.5-6.1H676l-2.7,6.1C672.4,269.5,669.4,270.7,666.6,269.8z M675.8,234.4c0-3,2.3-5.2,5.2-5.2h7.5
				l-4.7-11.6c-0.9-2.7,0.3-5.8,2.8-6.7c2.8-1.1,5.8,0.2,6.9,2.7l7.7,18.8c0.3,0.6,0.5,1.3,0.5,2c0,3-2.5,5.3-5.5,5.3H681
				C678.2,239.7,675.8,237.4,675.8,234.4z"/>
			<path fill="#558139" d="M823.6,265.9c0,2.8-2.2,5.2-5.2,5.2h-60.9c-3,0-5.3-2.3-5.3-5.2V161.1c0-2.8,2.3-5.2,5.3-5.2
				c2.8,0,5.2,2.3,5.2,5.2v99.4h55.7C821.4,260.6,823.6,262.9,823.6,265.9z M778.4,156c3,0,5.3,2.3,5.3,5.2v78.4h34.8
				c3,0,5.2,2.3,5.2,5.3c0,2.8-2.2,5.2-5.2,5.2h-40.1c-2.8,0-5.2-2.3-5.2-5.2v-83.7C773.2,158.3,775.5,156,778.4,156z"/>
			<path fill="#558139" d="M129.3,315.3c0-3,2.3-5.2,5.3-5.2h73.1c2.8,0,5,2.2,5,5.2c0,2.8-2.2,5.2-5,5.2h-73.1
				C131.6,320.5,129.3,318.1,129.3,315.3z M129.3,336.3c0-3,2.3-5.3,5.3-5.3h26c3,0,5.3,2.3,5.3,5.3v83.4c0,3-2.3,5.3-5.3,5.3
				c-2.8,0-5.3-2.3-5.3-5.3v-78.4h-20.7C131.6,341.3,129.3,339.1,129.3,336.3z M212.7,336.3c0,2.8-2.2,5-5,5h-21v78.4
				c0,3-2.3,5.3-5.3,5.3c-2.8,0-5.2-2.3-5.2-5.3v-83.4c0-3,2.3-5.3,5.2-5.3h26.3C210.5,331,212.7,333.3,212.7,336.3z"/>
			<path fill="#558139" d="M336.1,356c-2.8,0.9-5.9-0.6-6.7-3.4c-3.3-10-9.5-18.6-18.2-24.9c-8.1-5.8-18.3-9.4-29.4-9.4
				c-65.3,0-65.3,98,0,98c11.1,0,21.3-3.4,29.4-9.4c8.6-6.1,14.9-14.7,18.2-24.9c0.8-2.8,3.9-4.2,6.7-3.4c2.8,0.8,4.2,3.9,3.4,6.7
				c-3.9,12.2-11.7,22.9-21.9,30.2c-10.2,7.2-22.4,11.6-35.8,11.6c-79.4,0-79.4-119.4,0-119.4c13.5,0,25.7,4.2,35.8,11.4
				c10.2,7.5,18,18,21.9,30.4C340.3,352.2,338.9,355.2,336.1,356z M251.4,379c2.7-1.4,5.8-0.6,7.2,2c2.5,4.1,5.9,7.7,10,9.9
				c3.8,2.3,8.3,3.8,13.1,3.8c7.5,0,14.2-3,18.9-8c5-4.9,8-11.7,8-19.4c0-7.5-3-14.4-8-19.3c-4.7-4.9-11.4-8-18.9-8
				c-4.9,0-9.2,1.3-13.1,3.6c-4.1,2.3-7.5,5.8-10,9.9c-1.4,2.7-4.5,3.6-7.2,2.2c-2.5-1.4-3.4-4.7-1.9-7.4c3.3-5.8,8-10.6,13.6-13.9
				s12.1-5,18.6-5c10.5,0,19.9,4.2,26.8,11.1c6.6,6.9,10.8,16.3,10.8,26.8s-4.2,19.9-10.8,26.8c-6.9,7-16.3,11.3-26.8,11.3
				c-6.6,0-13-1.9-18.6-5c-5.6-3.4-10.3-8.3-13.6-14.1C247.9,383.6,248.9,380.6,251.4,379z"/>
			<path fill="#558139" d="M366,425c-2.8,0-5.2-2.3-5.2-5.2V315.1c0-2.8,2.3-5.2,5.2-5.2c3,0,5.3,2.3,5.3,5.2v104.7
				C371.3,422.7,368.9,425,366,425z M413.9,310.9c2.5,1.7,3,4.9,1.4,7.2l-24.1,34.4c-1.6,2.3-4.9,3-7.2,1.3
				c-1.6-1.1-2.2-2.7-2.2-4.5v-34.1c0-2.8,2.3-5.2,5.2-5.2c3,0,5.2,2.3,5.2,5.2V333l14.6-20.8C408.4,309.8,411.5,309.2,413.9,310.9z
				 M413.9,424.1c-2.3,1.6-5.5,1.1-7.2-1.3L392.1,402v17.8c0,2.8-2.2,5.2-5.2,5.2c-2.8,0-5.2-2.3-5.2-5.2v-34.3
				c0-5.3,6.6-7.4,9.4-3.1l24.1,34.3C416.8,419.2,416.4,422.4,413.9,424.1z M439.4,310.9c2.5,1.7,3,4.9,1.4,7.2l-34.4,49.3
				l34.4,49.3c1.6,2.5,1.1,5.6-1.4,7.4c-2.3,1.6-5.5,1.1-7.2-1.3l-36.5-52.3c-1.3-1.7-1.3-4.2,0-6.1l36.5-52.3
				C433.9,309.8,437,309.2,439.4,310.9z"/>
			<path fill="#558139" d="M449.7,423.8c-2.5-1.3-3.9-4.2-3-6.9l42.7-106.8c1.1-2.8,4.2-4.1,6.7-3c1.6,0.5,2.5,1.7,3,3l42.6,106.8
				c1.1,2.7-0.2,5.6-2.8,6.9c-2.7,0.9-5.8-0.3-6.9-3l-37.7-95l-37.7,95C455.3,423.5,452.4,424.7,449.7,423.8z M472.3,423.8
				c-2.7-1.3-3.9-4.2-2.8-6.9l3.8-9.5c0.9-1.9,3-3.3,4.9-3.3h32.4c2.3,0,4.4,1.7,5,3.8l3.8,9.1c0.9,2.7-0.2,5.6-2.8,6.9
				c-2.7,0.9-5.8-0.2-6.9-3l-2.5-6.1h-25.4l-2.7,6.1C478,423.5,475.1,424.7,472.3,423.8z M481.5,388.4c0-3,2.3-5.2,5.2-5.2h7.5
				l-4.7-11.6c-0.9-2.7,0.3-5.8,2.8-6.7c2.8-1.1,5.8,0.2,6.9,2.7l7.7,18.8c0.3,0.6,0.5,1.3,0.5,2c0,3-2.5,5.3-5.5,5.3h-15.2
				C483.8,393.7,481.5,391.4,481.5,388.4z"/>
			<path fill="#558139" d="M563.2,425c-3,0-5.3-2.3-5.3-5.3V313.6c0-3,2.3-5.3,5.3-5.3c3,0,5.3,2.3,5.3,5.3v106.1
				C568.5,422.7,566.2,425,563.2,425z M652,309.2c2.3,1.7,2.8,5,1.3,7.4L620,364.1c-1.7,2.5-5.2,3.1-7.5,1.3
				c-0.5-0.3-0.9-0.8-1.3-1.4l-33.2-47.4c-1.6-2.3-1.1-5.6,1.3-7.4c2.3-1.7,5.8-1.1,7.5,1.3l28.6,41.5l29-41.5
				C646.2,308.1,649.5,307.5,652,309.2z M646.8,425c-3,0-5.3-2.3-5.3-5.3v-49.3L620,401.2c-1.7,2.3-5.2,3-7.5,1.4
				c-0.5-0.5-0.9-0.9-1.3-1.4l-21.4-30.8v49.3c0,3-2.3,5.3-5.5,5.3c-2.8,0-5.2-2.3-5.2-5.3v-66.2c0-1.6,0.8-3.3,2.2-4.2
				c2.3-1.7,5.8-1.1,7.5,1.3l26.6,38.5l26.9-38.4c0.9-1.4,2.5-2.3,4.4-2.3c3,0,5.3,2.3,5.3,5.2v66.2
				C652.1,422.7,649.8,425,646.8,425z M667.9,425c-2.8,0-5.2-2.3-5.2-5.3V313.6c0-3,2.3-5.3,5.2-5.3c3.1,0,5.5,2.3,5.5,5.3v106.1
				C673.4,422.7,671.1,425,667.9,425z"/>
			<path fill="#558139" d="M691.9,423.8c-2.5-1.3-3.9-4.2-3-6.9l42.7-106.8c1.1-2.8,4.2-4.1,6.7-3c1.6,0.5,2.5,1.7,3,3l42.6,106.8
				c1.1,2.7-0.2,5.6-2.8,6.9c-2.7,0.9-5.8-0.3-6.9-3l-37.7-95l-37.7,95C697.5,423.5,694.5,424.7,691.9,423.8z M714.4,423.8
				c-2.7-1.3-3.9-4.2-2.8-6.9l3.8-9.5c0.9-1.9,3-3.3,4.9-3.3h32.4c2.3,0,4.4,1.7,5,3.8l3.8,9.1c0.9,2.7-0.2,5.6-2.8,6.9
				c-2.7,0.9-5.8-0.2-6.9-3l-2.5-6.1h-25.4l-2.7,6.1C720.2,423.5,717.2,424.7,714.4,423.8z M723.7,388.4c0-3,2.3-5.2,5.2-5.2h7.5
				l-4.7-11.6c-0.9-2.7,0.3-5.8,2.8-6.7c2.8-1.1,5.8,0.2,6.9,2.7l7.7,18.8c0.3,0.6,0.5,1.3,0.5,2c0,3-2.5,5.3-5.5,5.3h-15.2
				C726,393.7,723.7,391.4,723.7,388.4z"/>
			<path fill="#558139" d="M805.2,425c-2.8,0-5.2-2.3-5.2-5.2V315.1c0-2.8,2.3-5.2,5.2-5.2c3,0,5.3,2.3,5.3,5.2v104.7
				C810.5,422.7,808.2,425,805.2,425z M853.1,310.9c2.5,1.7,3,4.9,1.4,7.2l-24.1,34.4c-1.6,2.3-4.9,3-7.2,1.3
				c-1.6-1.1-2.2-2.7-2.2-4.5v-34.1c0-2.8,2.3-5.2,5.2-5.2c3,0,5.2,2.3,5.2,5.2V333l14.6-20.8C847.6,309.8,850.8,309.2,853.1,310.9z
				 M853.1,424.1c-2.3,1.6-5.5,1.1-7.2-1.3L831.4,402v17.8c0,2.8-2.2,5.2-5.2,5.2c-2.8,0-5.2-2.3-5.2-5.2v-34.3
				c0-5.3,6.6-7.4,9.4-3.1l24.1,34.3C856.1,419.2,855.6,422.4,853.1,424.1z M878.6,310.9c2.5,1.7,3,4.9,1.4,7.2l-34.4,49.3
				l34.4,49.3c1.6,2.5,1.1,5.6-1.4,7.4c-2.3,1.6-5.5,1.1-7.2-1.3L835,370.6c-1.3-1.7-1.3-4.2,0-6.1l36.5-52.3
				C873.2,309.8,876.3,309.2,878.6,310.9z"/>
		</g>
		<g>
			<path fill="#8DC63F" d="M270.5,156.3c2.7,1.3,3.9,4.1,2.8,6.9l-44.6,109.4c-1.9,4.4-7.8,4.4-9.7,0l-44.6-109.4
				c-0.9-2.8,0.2-5.6,3-6.9c2.7-0.9,5.6,0.3,6.7,3L224,257l39.8-97.7C264.9,156.6,268,155.4,270.5,156.3z M200.8,156.3
				c2.8-0.9,5.8,0.3,6.9,3l16.3,39.6l16.1-39.6c0.9-2.7,4.1-3.9,6.7-3c2.7,1.3,3.9,4.1,3,6.9l-21.1,51.5c-1.7,4.2-7.8,4.2-9.7,0
				l-20.8-51.5C196.9,160.4,198.3,157.5,200.8,156.3z"/>
			<path fill="#8DC63F" d="M292.7,271c-3,0-5.3-2.3-5.3-5.2V161.1c0-2.8,2.3-5.2,5.3-5.2c2.8,0,5.2,2.3,5.2,5.2v104.7
				C297.9,268.7,295.5,271,292.7,271z M313.7,271c-3,0-5.3-2.3-5.3-5.2V161.1c0-2.8,2.3-5.2,5.3-5.2c2.8,0,5.2,2.3,5.2,5.2v104.7
				C318.9,268.7,316.5,271,313.7,271z"/>
			<path fill="#8DC63F" d="M344.1,265.9V161.1c0-2.8,2.5-5.2,5.3-5.2h41.2c32.1,0,48.2,39.3,25.7,62.5c-4.5,4.5-10.2,8-16.4,9.5
				l24.3,34.8c3.9,5.6-4.7,11.7-8.5,6.1l-29-41.5c-3.1-4.1,0-8.6,3.9-8.6c23,0,34.3-28.5,18.2-44.8c-4.7-4.7-11.1-7.5-18.2-7.5h-36
				v99.4C354.6,272.8,344.1,272.8,344.1,265.9z M383.7,208.3c-8.1-0.5-8.5-10.3,0-10.3c4.9,0,10.6,0.8,10.6-5.3
				c0-3.1-2.5-5.3-5.5-5.3h-18.6c-6.9,0-6.9-10.5,0-10.5h18.6c9.5,0,15.8,8,15.8,16c0,8.8-7.2,15.5-15.8,15.5
				C387.4,208.3,385.4,208.4,383.7,208.3z M389.9,268.8L375.5,248v17.8c0,6.9-10.5,6.9-10.5,0v-34.1c0-5.6,6.6-7.2,9.5-3.3l24,34.3
				C402.5,268.4,394,274.5,389.9,268.8z"/>
			<path fill="#8DC63F" d="M432.4,161.3c0-3,2.3-5.2,5.3-5.2h73.1c2.8,0,5,2.2,5,5.2c0,2.8-2.2,5.2-5,5.2h-73.1
				C434.7,166.5,432.4,164.1,432.4,161.3z M432.4,182.3c0-3,2.3-5.3,5.3-5.3h26c3,0,5.3,2.3,5.3,5.3v83.4c0,3-2.3,5.3-5.3,5.3
				c-2.8,0-5.3-2.3-5.3-5.3v-78.4h-20.7C434.7,187.3,432.4,185.1,432.4,182.3z M515.8,182.3c0,2.8-2.2,5-5,5h-21v78.4
				c0,3-2.3,5.3-5.3,5.3c-2.8,0-5.2-2.3-5.2-5.3v-83.4c0-3,2.3-5.3,5.2-5.3h26.3C513.6,177,515.8,179.3,515.8,182.3z"/>
			<path fill="#8DC63F" d="M532.1,229.2V161c0-3,2.3-5.3,5.2-5.3c3,0,5.3,2.3,5.3,5.3v68.2c0,43.8,67.2,43.8,67.2,0V161
				c0-3,2.2-5.3,5.2-5.3c2.8,0,5.2,2.3,5.2,5.3v68.2C620,286.7,532.1,286.5,532.1,229.2z M553.5,161c0-3,2.3-5.3,5.2-5.3
				c3,0,5.3,2.3,5.3,5.3v67c0,16.6,24.3,16.6,24.3,0v-67c0-3,2.2-5.3,5.3-5.3c2.8,0,5.2,2.3,5.2,5.3v67c0,30.5-45.2,30.5-45.2,0V161
				z"/>
			<path fill="#8DC63F" d="M638,269.8c-2.5-1.3-3.9-4.2-3-6.9l42.7-106.8c1.1-2.8,4.2-4.1,6.7-3c1.6,0.5,2.5,1.7,3,3l42.6,106.8
				c1.1,2.7-0.2,5.6-2.8,6.9c-2.7,0.9-5.8-0.3-6.9-3l-37.7-95l-37.7,95C643.7,269.5,640.7,270.7,638,269.8z M660.6,269.8
				c-2.7-1.3-3.9-4.2-2.8-6.9l3.8-9.5c0.9-1.9,3-3.3,4.9-3.3h32.4c2.3,0,4.4,1.7,5,3.8l3.8,9.1c0.9,2.7-0.2,5.6-2.8,6.9
				c-2.7,0.9-5.8-0.2-6.9-3l-2.5-6.1H670l-2.7,6.1C666.4,269.5,663.4,270.7,660.6,269.8z M669.8,234.4c0-3,2.3-5.2,5.2-5.2h7.5
				l-4.7-11.6c-0.9-2.7,0.3-5.8,2.8-6.7c2.8-1.1,5.8,0.2,6.9,2.7l7.7,18.8c0.3,0.6,0.5,1.3,0.5,2c0,3-2.5,5.3-5.5,5.3H675
				C672.2,239.7,669.8,237.4,669.8,234.4z"/>
			<path fill="#8DC63F" d="M817.6,265.9c0,2.8-2.2,5.2-5.2,5.2h-60.9c-3,0-5.3-2.3-5.3-5.2V161.1c0-2.8,2.3-5.2,5.3-5.2
				c2.8,0,5.2,2.3,5.2,5.2v99.4h55.7C815.4,260.6,817.6,262.9,817.6,265.9z M772.4,156c3,0,5.3,2.3,5.3,5.2v78.4h34.8
				c3,0,5.2,2.3,5.2,5.3c0,2.8-2.2,5.2-5.2,5.2h-40.1c-2.8,0-5.2-2.3-5.2-5.2v-83.7C767.2,158.3,769.5,156,772.4,156z"/>
			<path fill="#8DC63F" d="M123.3,315.3c0-3,2.3-5.2,5.3-5.2h73.1c2.8,0,5,2.2,5,5.2c0,2.8-2.2,5.2-5,5.2h-73.1
				C125.6,320.5,123.3,318.1,123.3,315.3z M123.3,336.3c0-3,2.3-5.3,5.3-5.3h26c3,0,5.3,2.3,5.3,5.3v83.4c0,3-2.3,5.3-5.3,5.3
				c-2.8,0-5.3-2.3-5.3-5.3v-78.4h-20.7C125.6,341.3,123.3,339.1,123.3,336.3z M206.7,336.3c0,2.8-2.2,5-5,5h-21v78.4
				c0,3-2.3,5.3-5.3,5.3c-2.8,0-5.2-2.3-5.2-5.3v-83.4c0-3,2.3-5.3,5.2-5.3h26.3C204.5,331,206.7,333.3,206.7,336.3z"/>
			<path fill="#8DC63F" d="M330.1,356c-2.8,0.9-5.9-0.6-6.7-3.4c-3.3-10-9.5-18.6-18.2-24.9c-8.1-5.8-18.3-9.4-29.4-9.4
				c-65.3,0-65.3,98,0,98c11.1,0,21.3-3.4,29.4-9.4c8.6-6.1,14.9-14.7,18.2-24.9c0.8-2.8,3.9-4.2,6.7-3.4c2.8,0.8,4.2,3.9,3.4,6.7
				c-3.9,12.2-11.7,22.9-21.9,30.2c-10.2,7.2-22.4,11.6-35.8,11.6c-79.4,0-79.4-119.4,0-119.4c13.5,0,25.7,4.2,35.8,11.4
				c10.2,7.5,18,18,21.9,30.4C334.3,352.2,332.9,355.2,330.1,356z M245.4,379c2.7-1.4,5.8-0.6,7.2,2c2.5,4.1,5.9,7.7,10,9.9
				c3.8,2.3,8.3,3.8,13.1,3.8c7.5,0,14.2-3,18.9-8c5-4.9,8-11.7,8-19.4c0-7.5-3-14.4-8-19.3c-4.7-4.9-11.4-8-18.9-8
				c-4.9,0-9.2,1.3-13.1,3.6c-4.1,2.3-7.5,5.8-10,9.9c-1.4,2.7-4.5,3.6-7.2,2.2c-2.5-1.4-3.4-4.7-1.9-7.4c3.3-5.8,8-10.6,13.6-13.9
				s12.1-5,18.6-5c10.5,0,19.9,4.2,26.8,11.1c6.6,6.9,10.8,16.3,10.8,26.8s-4.2,19.9-10.8,26.8c-6.9,7-16.3,11.3-26.8,11.3
				c-6.6,0-13-1.9-18.6-5c-5.6-3.4-10.3-8.3-13.6-14.1C241.9,383.6,242.9,380.6,245.4,379z"/>
			<path fill="#8DC63F" d="M360,425c-2.8,0-5.2-2.3-5.2-5.2V315.1c0-2.8,2.3-5.2,5.2-5.2c3,0,5.3,2.3,5.3,5.2v104.7
				C365.3,422.7,362.9,425,360,425z M407.9,310.9c2.5,1.7,3,4.9,1.4,7.2l-24.1,34.4c-1.6,2.3-4.9,3-7.2,1.3
				c-1.6-1.1-2.2-2.7-2.2-4.5v-34.1c0-2.8,2.3-5.2,5.2-5.2c3,0,5.2,2.3,5.2,5.2V333l14.6-20.8C402.4,309.8,405.5,309.2,407.9,310.9z
				 M407.9,424.1c-2.3,1.6-5.5,1.1-7.2-1.3L386.1,402v17.8c0,2.8-2.2,5.2-5.2,5.2c-2.8,0-5.2-2.3-5.2-5.2v-34.3
				c0-5.3,6.6-7.4,9.4-3.1l24.1,34.3C410.8,419.2,410.4,422.4,407.9,424.1z M433.4,310.9c2.5,1.7,3,4.9,1.4,7.2l-34.4,49.3
				l34.4,49.3c1.6,2.5,1.1,5.6-1.4,7.4c-2.3,1.6-5.5,1.1-7.2-1.3l-36.5-52.3c-1.3-1.7-1.3-4.2,0-6.1l36.5-52.3
				C427.9,309.8,431,309.2,433.4,310.9z"/>
			<path fill="#8DC63F" d="M443.7,423.8c-2.5-1.3-3.9-4.2-3-6.9l42.7-106.8c1.1-2.8,4.2-4.1,6.7-3c1.6,0.5,2.5,1.7,3,3l42.6,106.8
				c1.1,2.7-0.2,5.6-2.8,6.9c-2.7,0.9-5.8-0.3-6.9-3l-37.7-95l-37.7,95C449.3,423.5,446.4,424.7,443.7,423.8z M466.2,423.8
				c-2.7-1.3-3.9-4.2-2.8-6.9l3.8-9.5c0.9-1.9,3-3.3,4.9-3.3h32.4c2.3,0,4.4,1.7,5,3.8l3.8,9.1c0.9,2.7-0.2,5.6-2.8,6.9
				c-2.7,0.9-5.8-0.2-6.9-3l-2.5-6.1h-25.4l-2.7,6.1C472,423.5,469.1,424.7,466.2,423.8z M475.5,388.4c0-3,2.3-5.2,5.2-5.2h7.5
				l-4.7-11.6c-0.9-2.7,0.3-5.8,2.8-6.7c2.8-1.1,5.8,0.2,6.9,2.7l7.7,18.8c0.3,0.6,0.5,1.3,0.5,2c0,3-2.5,5.3-5.5,5.3h-15.2
				C477.8,393.7,475.5,391.4,475.5,388.4z"/>
			<path fill="#8DC63F" d="M557.2,425c-3,0-5.3-2.3-5.3-5.3V313.6c0-3,2.3-5.3,5.3-5.3c3,0,5.3,2.3,5.3,5.3v106.1
				C562.5,422.7,560.2,425,557.2,425z M646,309.2c2.3,1.7,2.8,5,1.3,7.4L614,364.1c-1.7,2.5-5.2,3.1-7.5,1.3
				c-0.5-0.3-0.9-0.8-1.3-1.4l-33.2-47.4c-1.6-2.3-1.1-5.6,1.3-7.4c2.3-1.7,5.8-1.1,7.5,1.3l28.6,41.5l29-41.5
				C640.2,308.1,643.5,307.5,646,309.2z M640.8,425c-3,0-5.3-2.3-5.3-5.3v-49.3L614,401.2c-1.7,2.3-5.2,3-7.5,1.4
				c-0.5-0.5-0.9-0.9-1.3-1.4l-21.4-30.8v49.3c0,3-2.3,5.3-5.5,5.3c-2.8,0-5.2-2.3-5.2-5.3v-66.2c0-1.6,0.8-3.3,2.2-4.2
				c2.3-1.7,5.8-1.1,7.5,1.3l26.6,38.5l26.9-38.4c0.9-1.4,2.5-2.3,4.4-2.3c3,0,5.3,2.3,5.3,5.2v66.2
				C646.1,422.7,643.8,425,640.8,425z M661.9,425c-2.8,0-5.2-2.3-5.2-5.3V313.6c0-3,2.3-5.3,5.2-5.3c3.1,0,5.5,2.3,5.5,5.3v106.1
				C667.4,422.7,665.1,425,661.9,425z"/>
			<path fill="#8DC63F" d="M685.9,423.8c-2.5-1.3-3.9-4.2-3-6.9l42.7-106.8c1.1-2.8,4.2-4.1,6.7-3c1.6,0.5,2.5,1.7,3,3l42.6,106.8
				c1.1,2.7-0.2,5.6-2.8,6.9c-2.7,0.9-5.8-0.3-6.9-3l-37.7-95l-37.7,95C691.5,423.5,688.5,424.7,685.9,423.8z M708.4,423.8
				c-2.7-1.3-3.9-4.2-2.8-6.9l3.8-9.5c0.9-1.9,3-3.3,4.9-3.3h32.4c2.3,0,4.4,1.7,5,3.8l3.8,9.1c0.9,2.7-0.2,5.6-2.8,6.9
				c-2.7,0.9-5.8-0.2-6.9-3l-2.5-6.1h-25.4l-2.7,6.1C714.2,423.5,711.2,424.7,708.4,423.8z M717.7,388.4c0-3,2.3-5.2,5.2-5.2h7.5
				l-4.7-11.6c-0.9-2.7,0.3-5.8,2.8-6.7c2.8-1.1,5.8,0.2,6.9,2.7l7.7,18.8c0.3,0.6,0.5,1.3,0.5,2c0,3-2.5,5.3-5.5,5.3h-15.2
				C720,393.7,717.7,391.4,717.7,388.4z"/>
			<path fill="#8DC63F" d="M799.2,425c-2.8,0-5.2-2.3-5.2-5.2V315.1c0-2.8,2.3-5.2,5.2-5.2c3,0,5.3,2.3,5.3,5.2v104.7
				C804.5,422.7,802.2,425,799.2,425z M847.1,310.9c2.5,1.7,3,4.9,1.4,7.2l-24.1,34.4c-1.6,2.3-4.9,3-7.2,1.3
				c-1.6-1.1-2.2-2.7-2.2-4.5v-34.1c0-2.8,2.3-5.2,5.2-5.2c3,0,5.2,2.3,5.2,5.2V333l14.6-20.8C841.6,309.8,844.8,309.2,847.1,310.9z
				 M847.1,424.1c-2.3,1.6-5.5,1.1-7.2-1.3L825.3,402v17.8c0,2.8-2.2,5.2-5.2,5.2c-2.8,0-5.2-2.3-5.2-5.2v-34.3
				c0-5.3,6.6-7.4,9.4-3.1l24.1,34.3C850.1,419.2,849.6,422.4,847.1,424.1z M872.6,310.9c2.5,1.7,3,4.9,1.4,7.2l-34.4,49.3
				l34.4,49.3c1.6,2.5,1.1,5.6-1.4,7.4c-2.3,1.6-5.5,1.1-7.2-1.3L829,370.6c-1.3-1.7-1.3-4.2,0-6.1l36.5-52.3
				C867.1,309.8,870.3,309.2,872.6,310.9z"/>
		</g>
	</g>
	
		<line fill="none" stroke="#193634" stroke-width="9" stroke-linecap="round" stroke-miterlimit="10" x1="105.6" y1="290.7" x2="904.4" y2="290.7"/>
	<g>
		<path fill="#165B7B" stroke="#0D3042" stroke-width="4" stroke-miterlimit="10" d="M432,93.9c0-2.1,1.7-3.8,3.8-3.8
			s3.8,1.7,3.8,3.8v27.7c0,2.1-1.7,3.8-3.8,3.8s-3.8-1.7-3.8-3.8V93.9z"/>
		<path fill="#165B7B" stroke="#0D3042" stroke-width="4" stroke-miterlimit="10" d="M449.1,94.2c0-2.1,1.7-3.8,3.8-3.8h10.4
			c8.3,0,13.3,4.9,13.3,12v0.1c0,8-6.2,12.2-14,12.2h-5.8v6.9c0,2.1-1.7,3.8-3.8,3.8c-2.1,0-3.8-1.7-3.8-3.8V94.2z M462.8,107.9
			c3.8,0,6.1-2.3,6.1-5.3v-0.1c0-3.4-2.4-5.3-6.2-5.3h-5.9v10.6H462.8z"/>
		<path fill="#165B7B" stroke="#0D3042" stroke-width="4" stroke-miterlimit="10" d="M483,94.2c0-2.1,1.7-3.8,3.8-3.8h10.4
			c8.3,0,13.3,4.9,13.3,12v0.1c0,8-6.2,12.2-14,12.2h-5.8v6.9c0,2.1-1.7,3.8-3.8,3.8c-2.1,0-3.8-1.7-3.8-3.8V94.2z M496.6,107.9
			c3.8,0,6.1-2.3,6.1-5.3v-0.1c0-3.4-2.4-5.3-6.2-5.3h-5.9v10.6H496.6z"/>
		<path fill="#165B7B" stroke="#0D3042" stroke-width="4" stroke-miterlimit="10" d="M516.7,121.3V94.2c0-2.1,1.7-3.8,3.8-3.8h19.2
			c1.9,0,3.4,1.5,3.4,3.4s-1.5,3.4-3.4,3.4h-15.5v7h13.2c1.9,0,3.4,1.5,3.4,3.4c0,1.9-1.5,3.4-3.4,3.4h-13.2v7.3H540
			c1.9,0,3.4,1.5,3.4,3.4c0,1.9-1.5,3.4-3.4,3.4h-19.5C518.3,125.1,516.7,123.4,516.7,121.3z"/>
		<path fill="#165B7B" stroke="#0D3042" stroke-width="4" stroke-miterlimit="10" d="M549.8,119l9.4-11.5l-8.8-10.8
			c-0.6-0.7-1.1-1.7-1.1-2.8c0-2.1,1.6-3.8,3.8-3.8c1.6,0,2.6,0.6,3.5,1.9l7.6,10.1l7.5-9.9c1-1.3,2-2.1,3.7-2.1s3.5,1.3,3.5,3.5
			c0,1.1-0.4,2-1.1,2.9l-8.8,10.8l9.3,11.5c0.6,0.7,1.1,1.7,1.1,2.8c0,2.1-1.6,3.8-3.8,3.8c-1.6,0-2.6-0.6-3.5-1.9l-8.1-10.7
			l-8,10.5c-1,1.3-2,2.1-3.7,2.1c-1.7,0-3.5-1.3-3.5-3.5C548.7,120.8,549.1,119.9,549.8,119z"/>
	</g>
	<g>
		<rect x="370" y="468.7" fill="#FFFFFF" width="268.2" height="47.2"/>
		<rect x="364.6" y="463.3" fill="#322850" stroke="#FFFFFF" stroke-miterlimit="10" width="268.2" height="47.2"/>
		<g>
			<path fill="#FFFFFF" d="M458.8,490.2c0.1,0.9,0.3,1.6,0.6,2.2c0.3,0.6,0.7,1.1,1.2,1.5c0.5,0.4,1.1,0.6,1.7,0.8
				c0.6,0.2,1.3,0.3,2.1,0.3c0.9,0,1.6-0.1,2.2-0.3c0.6-0.2,1.1-0.5,1.5-0.9c0.4-0.4,0.7-0.8,0.9-1.3c0.2-0.5,0.3-1,0.3-1.5
				c0-0.8-0.2-1.4-0.5-1.8c-0.3-0.5-0.8-0.8-1.3-1.1c-0.5-0.3-1.2-0.5-1.9-0.7c-0.7-0.2-1.4-0.4-2.2-0.5c-0.7-0.2-1.5-0.4-2.2-0.6
				c-0.7-0.2-1.3-0.5-1.9-0.9c-0.5-0.4-1-0.9-1.3-1.5c-0.3-0.6-0.5-1.4-0.5-2.4c0-0.7,0.1-1.3,0.4-1.9c0.3-0.6,0.7-1.2,1.2-1.7
				s1.2-0.9,2.1-1.2c0.8-0.3,1.8-0.4,2.8-0.4c1.1,0,2,0.2,2.9,0.5s1.5,0.7,2,1.2c0.5,0.5,0.9,1.1,1.2,1.8c0.3,0.7,0.4,1.4,0.4,2.2
				h-1.7c0-0.7-0.1-1.4-0.4-1.9s-0.6-1-1.1-1.3s-1-0.6-1.5-0.8c-0.6-0.2-1.2-0.2-1.8-0.2c-0.9,0-1.7,0.1-2.4,0.4
				c-0.6,0.3-1.1,0.6-1.5,1c-0.4,0.4-0.6,0.9-0.8,1.4s-0.2,1-0.1,1.5c0.1,0.6,0.4,1.1,0.8,1.5c0.4,0.4,0.9,0.7,1.5,0.9
				c0.6,0.2,1.2,0.4,1.9,0.6s1.4,0.3,2.1,0.5c0.7,0.2,1.4,0.4,2.1,0.6s1.3,0.5,1.8,0.9c0.5,0.4,0.9,0.9,1.2,1.5
				c0.3,0.6,0.5,1.4,0.5,2.3c0,1.8-0.6,3.2-1.9,4.2c-1.2,1-3,1.5-5.2,1.5c-1,0-1.9-0.1-2.8-0.4s-1.6-0.7-2.2-1.2
				c-0.6-0.5-1.1-1.2-1.5-2c-0.3-0.8-0.5-1.7-0.5-2.8H458.8z"/>
			<path fill="#FFFFFF" d="M473.4,476.6h14.1v1.6h-6.1v17.8h-1.8v-17.8h-6.1V476.6z"/>
			<path fill="#FFFFFF" d="M489,495.9l7.6-19.4h2.1l7.4,19.4h-1.9l-2.2-6.1h-8.8l-2.3,6.1H489z M493.8,488.3h7.6l-3.8-10.2
				L493.8,488.3z"/>
			<path fill="#FFFFFF" d="M511.2,487.2v8.8l-1.8,0v-19.3h7.6c2.1,0,3.8,0.4,4.9,1.2c1.1,0.8,1.7,2.1,1.7,3.9c0,1.2-0.2,2.2-0.7,2.9
				c-0.5,0.7-1.3,1.3-2.4,1.8c0.6,0.2,1,0.5,1.3,0.9c0.3,0.4,0.6,0.8,0.7,1.3c0.2,0.5,0.3,1,0.3,1.5s0.1,1.1,0.1,1.6
				c0,0.7,0,1.3,0.1,1.8c0,0.5,0.1,0.9,0.2,1.2c0.1,0.3,0.1,0.5,0.2,0.7c0.1,0.2,0.2,0.3,0.3,0.4v0.2l-2,0c-0.2-0.3-0.3-0.8-0.4-1.3
				c-0.1-0.6-0.1-1.2-0.2-1.8c0-0.6-0.1-1.2-0.1-1.8c0-0.6-0.1-1.1-0.1-1.5c-0.1-0.5-0.3-0.9-0.5-1.3c-0.2-0.3-0.5-0.6-0.9-0.7
				s-0.7-0.3-1.1-0.3c-0.4-0.1-0.9-0.1-1.3-0.1H511.2z M516.9,485.6c0.7,0,1.3-0.1,1.9-0.2c0.6-0.1,1.1-0.4,1.5-0.7
				c0.4-0.3,0.8-0.7,1-1.2s0.4-1.1,0.4-1.7c0-0.7-0.1-1.3-0.4-1.8c-0.3-0.5-0.6-0.8-1-1.1c-0.4-0.3-0.9-0.5-1.5-0.6
				c-0.6-0.1-1.2-0.2-1.8-0.2h-5.8v7.4H516.9z"/>
			<path fill="#FFFFFF" d="M526.2,476.6h14.1v1.6h-6.1v17.8h-1.8v-17.8h-6.1V476.6z"/>
		</g>
	</g>
	<g>
		<g>
			<path fill="#165B7B" d="M189.3,625.1h0.4v-1.8l2.2-2.7h-0.5l-1.9,2.4l-1.9-2.4h-0.5l2.2,2.7V625.1z M182.8,622.9v-2h1.7
				c0.9,0,1.5,0.4,1.5,1v0c0,0.7-0.6,1-1.5,1H182.8z M182.4,625.1h0.4v-1.9h1.7h0l1.6,1.9h0.5l-1.7-1.9c0.9-0.1,1.5-0.5,1.5-1.3v0
				c0-0.3-0.1-0.6-0.4-0.8c-0.3-0.3-0.8-0.4-1.4-0.4h-2.1V625.1z M178.5,624.8c-1.3,0-2.2-0.9-2.2-2v0c0-1.1,0.9-2,2.2-2
				c1.3,0,2.2,0.9,2.2,2v0C180.7,623.9,179.8,624.8,178.5,624.8 M178.5,625.2c1.5,0,2.6-1.1,2.6-2.3c0,0,0,0,0,0
				c0-1.2-1-2.3-2.6-2.3c-1.5,0-2.6,1.1-2.6,2.3v0C175.9,624.1,176.9,625.2,178.5,625.2 M173.2,625.1h0.4v-4.2h1.8v-0.3h-3.9v0.3
				h1.8V625.1z M167.3,623.5l1.3-2.6l1.3,2.6H167.3z M166.1,625.1h0.4l0.6-1.3h3l0.6,1.3h0.4l-2.4-4.6h-0.4L166.1,625.1z
				 M161.6,622.9v-2h1.7c0.9,0,1.5,0.4,1.5,1v0c0,0.7-0.6,1-1.5,1H161.6z M161.2,625.1h0.4v-1.9h1.7h0l1.6,1.9h0.5l-1.7-1.9
				c0.9-0.1,1.5-0.5,1.5-1.3v0c0-0.3-0.1-0.6-0.4-0.8c-0.3-0.3-0.8-0.4-1.4-0.4h-2.1V625.1z M157.3,624.8c-1.3,0-2.2-0.9-2.2-2v0
				c0-1.1,0.9-2,2.2-2c1.3,0,2.2,0.9,2.2,2v0C159.4,623.9,158.5,624.8,157.3,624.8 M157.2,625.2c1.5,0,2.6-1.1,2.6-2.3c0,0,0,0,0,0
				c0-1.2-1-2.3-2.6-2.3c-1.5,0-2.6,1.1-2.6,2.3v0C154.7,624.1,155.7,625.2,157.2,625.2 M149.9,624.8v-1.8h1.7c1,0,1.6,0.3,1.6,0.9
				v0c0,0.6-0.6,0.9-1.4,0.9H149.9z M149.9,622.6v-1.8h1.7c0.8,0,1.3,0.3,1.3,0.8v0c0,0.6-0.5,0.9-1.3,0.9H149.9z M149.6,625.1h2.2
				c1.1,0,1.8-0.5,1.8-1.2v0c0-0.6-0.5-0.9-1.2-1.1c0.4-0.1,0.9-0.5,0.9-1.1v0c0-0.3-0.1-0.5-0.3-0.7c-0.3-0.3-0.8-0.4-1.3-0.4h-2.1
				V625.1z M144.5,623.5l1.3-2.6l1.3,2.6H144.5z M143.3,625.1h0.4l0.6-1.3h3l0.6,1.3h0.4l-2.4-4.6h-0.4L143.3,625.1z M139.1,625.1
				h3.4v-0.3h-3v-4.2h-0.4V625.1z"/>
			<path fill="#165B7B" d="M203.4,618c1,0,1.7-0.5,1.7-1.2v0c0-0.7-0.5-1-1.7-1.3c-1.2-0.2-1.5-0.5-1.5-1v0c0-0.5,0.5-0.9,1.2-0.9
				c0.6,0,1,0.1,1.5,0.5l0.2-0.3c-0.5-0.4-1-0.6-1.8-0.6c-0.9,0-1.6,0.5-1.6,1.2v0c0,0.7,0.5,1.1,1.7,1.3c1.2,0.2,1.4,0.5,1.4,1v0
				c0,0.5-0.5,0.9-1.3,0.9c-0.8,0-1.3-0.2-1.8-0.7l-0.2,0.3C201.9,617.8,202.6,618,203.4,618 M198.5,618c0.9,0,1.5-0.3,2-0.8
				l-0.3-0.2c-0.5,0.5-1,0.7-1.8,0.7c-1.2,0-2.2-0.9-2.2-2v0c0-1.1,0.9-2,2.2-2c0.8,0,1.3,0.3,1.7,0.7l0.3-0.2
				c-0.5-0.4-1.1-0.7-2-0.7c-1.5,0-2.6,1.1-2.6,2.3v0C196,617,197,618,198.5,618 M194.2,617.9h0.4v-4.5h-0.4V617.9z M191.1,618
				c1,0,1.7-0.5,1.7-1.2v0c0-0.7-0.5-1-1.7-1.3c-1.2-0.2-1.5-0.5-1.5-1v0c0-0.5,0.5-0.9,1.2-0.9c0.6,0,1,0.1,1.5,0.5l0.2-0.3
				c-0.5-0.4-1-0.6-1.8-0.6c-0.9,0-1.6,0.5-1.6,1.2v0c0,0.7,0.5,1.1,1.7,1.3c1.2,0.2,1.4,0.5,1.4,1v0c0,0.5-0.5,0.9-1.3,0.9
				c-0.8,0-1.3-0.2-1.8-0.7l-0.2,0.3C189.6,617.8,190.3,618,191.1,618 M186,617.9h0.4v-1.8l2.2-2.7h-0.5l-1.9,2.4l-1.9-2.4h-0.5
				l2.2,2.7V617.9z M178.7,617.9h0.4v-2.1h3.3v2.1h0.4v-4.5h-0.4v2.1H179v-2.1h-0.4V617.9z M174.1,615.9v-2.2h1.4
				c0.9,0,1.5,0.4,1.5,1.1v0c0,0.7-0.6,1.1-1.6,1.1H174.1z M173.7,617.9h0.4v-1.7h1.4c1.1,0,2-0.5,2-1.4v0c0-0.9-0.8-1.4-1.9-1.4
				h-1.9V617.9z M166.3,616.4l1.3-2.6l1.3,2.6H166.3z M165.1,617.9h0.4l0.6-1.3h3l0.6,1.3h0.4l-2.4-4.6h-0.4L165.1,617.9z
				 M159.2,617.9h0.4V614l2,2.6h0l2-2.6v3.9h0.4v-4.5h-0.4l-2,2.7l-2-2.7h-0.4V617.9z M156.1,618c1,0,1.7-0.5,1.7-1.2v0
				c0-0.7-0.5-1-1.7-1.3c-1.2-0.2-1.5-0.5-1.5-1v0c0-0.5,0.5-0.9,1.2-0.9c0.6,0,1,0.1,1.5,0.5l0.2-0.3c-0.5-0.4-1-0.6-1.8-0.6
				c-0.9,0-1.6,0.5-1.6,1.2v0c0,0.7,0.5,1.1,1.7,1.3c1.2,0.2,1.4,0.5,1.4,1v0c0,0.5-0.5,0.9-1.3,0.9c-0.8,0-1.3-0.2-1.8-0.7
				l-0.2,0.3C154.7,617.8,155.3,618,156.1,618 M149.4,616.4l1.3-2.6l1.3,2.6H149.4z M148.2,617.9h0.4l0.6-1.3h3l0.6,1.3h0.4
				l-2.4-4.6h-0.4L148.2,617.9z M144.1,617.9h3.4v-0.3h-3v-4.2h-0.4V617.9z M139.5,615.9v-2.2h1.4c0.9,0,1.5,0.4,1.5,1.1v0
				c0,0.7-0.6,1.1-1.6,1.1H139.5z M139.1,617.9h0.4v-1.7h1.4c1.1,0,2-0.5,2-1.4v0c0-0.9-0.8-1.4-1.9-1.4h-1.9V617.9z"/>
			<path fill="#165B7B" d="M178.5,610.8h0.4v-4l3.6,4h0.3v-4.5h-0.4v3.9l-3.5-3.9h-0.4V610.8z M174.6,610.6c-1.3,0-2.2-0.9-2.2-2v0
				c0-1.1,0.9-2,2.2-2c1.3,0,2.2,0.9,2.2,2v0C176.7,609.7,175.8,610.6,174.6,610.6 M174.5,610.9c1.5,0,2.6-1.1,2.6-2.3c0,0,0,0,0,0
				c0-1.2-1-2.3-2.6-2.3c-1.5,0-2.6,1.1-2.6,2.3v0C172,609.8,173,610.9,174.5,610.9 M169.2,610.8h0.4v-4.2h1.8v-0.3h-3.9v0.3h1.8
				V610.8z M162.8,610.8h3.7v-0.3h-3.3v-1.8h2.9v-0.3h-2.9v-1.8h3.3v-0.3h-3.6V610.8z M159.7,610.9c0.9,0,1.5-0.3,2-0.8l-0.3-0.2
				c-0.5,0.5-1,0.7-1.8,0.7c-1.2,0-2.2-0.9-2.2-2v0c0-1.1,0.9-2,2.2-2c0.8,0,1.3,0.3,1.7,0.7l0.3-0.2c-0.5-0.4-1.1-0.7-2-0.7
				c-1.5,0-2.6,1.1-2.6,2.3v0C157.1,609.9,158.2,610.9,159.7,610.9 M151.5,610.8h0.4v-4l3.6,4h0.3v-4.5h-0.4v3.9l-3.5-3.9h-0.4
				V610.8z M149.5,610.8h0.4v-4.5h-0.4V610.8z M144.4,608.6v-2h1.7c0.9,0,1.5,0.4,1.5,1v0c0,0.7-0.6,1-1.5,1H144.4z M144.1,610.8
				h0.4v-1.9h1.7h0l1.6,1.9h0.5l-1.7-1.9c0.9-0.1,1.5-0.5,1.5-1.3v0c0-0.3-0.1-0.6-0.4-0.8c-0.3-0.3-0.8-0.4-1.4-0.4h-2.1V610.8z
				 M139.5,608.8v-2.2h1.4c0.9,0,1.5,0.4,1.5,1.1v0c0,0.7-0.6,1.1-1.6,1.1H139.5z M139.1,610.8h0.4v-1.7h1.4c1.1,0,2-0.5,2-1.4v0
				c0-0.9-0.8-1.4-1.9-1.4h-1.9V610.8z"/>
		</g>
		<g>
			<path fill="#165B7B" d="M47.4,595c-10.2,0-18.5,7.9-18.5,17.6c0,0.2,0,0.3,0,0.5c0,0.1,0,0.2,0,0.4c0,0,0,0.1,0,0.1
				c0,0,0,0.1,0,0.1c0,0.1,0,0.3,0,0.4c0.2-3.5,3.2-6.2,6.9-6.2c1.5,0,2.9,0.5,4,1.2c-0.6-0.2-1.3-0.3-2-0.3c-3.4,0-6.2,2.7-6.2,5.9
				s2.8,5.9,6.2,5.9c2,0,3.7-0.9,4.9-2.2c1.1-1.3,1.8-2.9,1.8-4.7c0-4.1-3.5-7.4-7.8-7.4c-2.1,0-3.9,0.8-5.3,2
				c1.9-2,4.6-3.3,7.7-3.3c5.6,0,10.1,4.3,10.1,9.7c0,5.1-4.2,9.3-9.5,9.6c0.2,0,0.3,0,0.5,0c6.2,0,11.3-4.8,11.3-10.8
				c0-5.9-5.1-10.8-11.3-10.8c-3.5,0-6.6,1.5-8.7,3.9c2.7-3.9,7.3-6.4,12.6-6.4c8.4,0,15.2,6.5,15.2,14.5c0,8-6.8,14.5-15.2,14.5
				c-1.9,0-3.6-0.3-5.3-0.9c2.6,1.3,5.5,2,8.6,2c10.2,0,18.5-7.9,18.5-17.6C65.9,602.9,57.6,595,47.4,595z"/>
			<path fill="#165B7B" d="M129.9,622.3c-1.8,0-3-0.2-3.9-1.3c-0.7-0.7-0.7-1.9-0.7-3.5v-0.7v-10.5h-4.2v3.8
				c-0.4-1.2-1.2-2.2-2.4-2.8c-1.2-0.7-3.2-1-5.9-1h-9.2v4.5c-0.4-1.5-1.2-2.7-2.6-3.5c-1.2-0.7-3.2-1-5.9-1h-9.2v4.5
				c-0.4-1.5-1.2-2.7-2.6-3.5c-1.2-0.7-3.2-1-5.9-1h-9.2v19.2h4.2v-6.7h5.1c2.5,0,4.5-0.1,6.2-1.2c1.1-0.8,1.8-1.8,2.1-3.1v11.1h4.2
				v-6.7h5.1c2.5,0,4.5-0.1,6.2-1.2c1.1-0.8,1.8-1.8,2.1-3.1v11.1h4.2v-6.7h5.1c2.5,0,4.5-0.1,6.2-1.2c0.9-0.6,1.5-1.4,1.9-2.4v2.6
				c0,2.5,0.3,4.2,1.8,5.8c1.8,1.8,3.7,2,6.6,2h5.3v-3.2H129.9z M77.7,615.3h-5.2v-5.7h4.9c2.8,0,4,0.7,4,2.8
				C81.4,614.4,80.2,615.3,77.7,615.3z M95.3,615.3h-5.2v-5.7h4.9c2.8,0,4,0.7,4,2.8C99.1,614.4,97.9,615.3,95.3,615.3z M113,615.3
				h-5.2v-5.7h4.9c2.8,0,4,0.7,4,2.8C116.8,614.4,115.5,615.3,113,615.3z"/>
		</g>
	</g>
</g>
<g id="Layer_3">
</g>
</svg>
